<svg xmlns="http://www.w3.org/2000/svg" xmlns:xlink="http://www.w3.org/1999/xlink" xmlns:lucid="lucid" width="2476.17" height="1488.1"><g transform="translate(0 0)" lucid:page-tab-id="0_0"><path d="M0 0h2476.17v1488.1H0z" fill="#fff"/><path d="M969.7 70.93c0-4.42 3.57-8 8-8h520.77c4.42 0 8 3.58 8 8v60.3c0 4.4-3.58 8-8 8H977.7c-4.43 0-8-3.6-8-8z" stroke="#000" stroke-opacity="0" stroke-width="2" fill="#fff" fill-opacity="0"/><use xlink:href="#a" transform="matrix(1,0,0,1,973.6923138966438,66.92666666666665) translate(124.64395061728396 38.75152777777778)"/><use xlink:href="#b" transform="matrix(1,0,0,1,973.6923138966438,66.92666666666665) translate(255.31802469135806 38.75152777777778)"/><use xlink:href="#c" transform="matrix(1,0,0,1,973.6923138966438,66.92666666666665) translate(306.23283950617287 38.75152777777778)"/><path d="M85.3 413.12h200v282h-200z" stroke="#666" fill="#c5ecc4"/><path d="M85.3 474.05h200m-200 179.63h200" stroke="#666" fill="none"/><use xlink:href="#d" transform="matrix(1,0,0,1,93.29629629629628,421.1158623676174) translate(47.17467206790123 16.524305555555554)"/><use xlink:href="#e" transform="matrix(1,0,0,1,93.29629629629628,421.1158623676174) translate(52.1129436728395 16.524305555555554)"/><use xlink:href="#f" transform="matrix(1,0,0,1,93.29629629629628,421.1158623676174) translate(68.82098765432099 37.857638888888886)"/><use xlink:href="#g" transform="matrix(1,0,0,1,97.29629629629628,482.0533623676174) translate(0 21.555555555555536)"/><use xlink:href="#h" transform="matrix(1,0,0,1,97.29629629629628,482.0533623676174) translate(0 42.88888888888887)"/><use xlink:href="#i" transform="matrix(1,0,0,1,97.29629629629628,482.0533623676174) translate(0 64.22222222222221)"/><use xlink:href="#j" transform="matrix(1,0,0,1,97.29629629629628,482.0533623676174) translate(0 85.55555555555554)"/><use xlink:href="#k" transform="matrix(1,0,0,1,97.29629629629628,482.0533623676174) translate(0 106.88888888888889)"/><use xlink:href="#l" transform="matrix(1,0,0,1,97.29629629629628,482.0533623676174) translate(0 128.22222222222223)"/><use xlink:href="#m" transform="matrix(1,0,0,1,97.29629629629628,482.0533623676174) translate(0 149.55555555555557)"/><use xlink:href="#n" transform="matrix(1,0,0,1,97.29629629629628,661.6808133480096) translate(0 16.555555555555557)"/><path d="M1630.25 413.52h200v173h-200z" stroke="#666" fill="#c5ecc4"/><path d="M1630.25 478.1h200m-200 67.33h200" stroke="#666" fill="none"/><use xlink:href="#o" transform="matrix(1,0,0,1,1638.2514544231294,421.51708513263475) translate(43.15775462962962 19.99583333333333)"/><use xlink:href="#p" transform="matrix(1,0,0,1,1638.2514544231294,421.51708513263475) translate(48.342939814814805 19.99583333333333)"/><use xlink:href="#q" transform="matrix(1,0,0,1,1638.2514544231294,421.51708513263475) translate(59.60493827160494 41.68472222222222)"/><use xlink:href="#r" transform="matrix(1,0,0,1,1642.2514544231294,486.10875179930144) translate(0 18.799999999999997)"/><use xlink:href="#s" transform="matrix(1,0,0,1,1642.2514544231294,486.10875179930144) translate(0 40.4)"/><use xlink:href="#t" transform="matrix(1,0,0,1,1642.2514544231294,553.4310225416594) translate(0 16.6)"/><path d="M305.53 1055.43h240v140h-240z" stroke="#666" fill="#c5ecc4"/><path d="M305.53 1120.02h240m-240 37.6h240" stroke="#666" fill="none"/><use xlink:href="#u" transform="matrix(1,0,0,1,313.5291005291005,1063.4271778495631) translate(63.65775462962962 19.99583333333333)"/><use xlink:href="#v" transform="matrix(1,0,0,1,313.5291005291005,1063.4271778495631) translate(68.84293981481481 19.99583333333333)"/><use xlink:href="#w" transform="matrix(1,0,0,1,313.5291005291005,1063.4271778495631) translate(83.46296296296296 41.68472222222222)"/><use xlink:href="#x" transform="matrix(1,0,0,1,317.5291005291005,1165.6188445162297) translate(0 14.6)"/><path d="M296.5 661.5h240v140h-240z" stroke="#666" fill="#c5ecc4"/><path d="M296.5 726.1h240m-240 37.6h240" stroke="#666" fill="none"/><use xlink:href="#u" transform="matrix(1,0,0,1,304.5079365079365,669.4973544973544) translate(63.15775462962962 19.99583333333333)"/><use xlink:href="#v" transform="matrix(1,0,0,1,304.5079365079365,669.4973544973544) translate(68.34293981481481 19.99583333333333)"/><use xlink:href="#y" transform="matrix(1,0,0,1,304.5079365079365,669.4973544973544) translate(90.8395061728395 41.68472222222222)"/><use xlink:href="#z" transform="matrix(1,0,0,1,308.5079365079365,771.6890211640211) translate(0 14.6)"/><path d="M296.5 864.46h240v140h-240z" stroke="#666" fill="#c5ecc4"/><path d="M296.5 929.05h240m-240 37.6h240" stroke="#666" fill="none"/><use xlink:href="#u" transform="matrix(1,0,0,1,304.5079365079365,872.4622661734587) translate(63.65775462962962 19.99583333333333)"/><use xlink:href="#v" transform="matrix(1,0,0,1,304.5079365079365,872.4622661734587) translate(68.84293981481481 19.99583333333333)"/><use xlink:href="#A" transform="matrix(1,0,0,1,304.5079365079365,872.4622661734587) translate(85.46296296296296 41.68472222222222)"/><use xlink:href="#B" transform="matrix(1,0,0,1,308.5079365079365,974.6539328401254) translate(0 14.6)"/><path d="M296.5 1246.4h240v200h-240z" stroke="#666" fill="#c5ecc4"/><path d="M296.5 1310.98h240m-240 43h240" stroke="#666" fill="none"/><use xlink:href="#u" transform="matrix(1,0,0,1,304.5079365079365,1254.3920895256674) translate(63.15775462962962 19.99583333333333)"/><use xlink:href="#v" transform="matrix(1,0,0,1,304.5079365079365,1254.3920895256674) translate(68.34293981481481 19.99583333333333)"/><use xlink:href="#C" transform="matrix(1,0,0,1,304.5079365079365,1254.3920895256674) translate(70.07407407407408 41.68472222222222)"/><use xlink:href="#D" transform="matrix(1,0,0,1,308.5079365079365,1361.9824048409828) translate(0 20.5)"/><use xlink:href="#E" transform="matrix(1,0,0,1,308.5079365079365,1361.9824048409828) translate(0 42.1)"/><use xlink:href="#F" transform="matrix(1,0,0,1,308.5079365079365,1361.9824048409828) translate(131.75 42.1)"/><use xlink:href="#G" transform="matrix(1,0,0,1,308.5079365079365,1361.9824048409828) translate(0 63.7)"/><path d="M780 661.5h277.28v152H780z" stroke="#666" fill="#c5ecc4"/><path d="M780 726.1h277.28M780 773.22h277.28" stroke="#666" fill="none"/><use xlink:href="#u" transform="matrix(1,0,0,1,788,669.4973544973544) translate(82.15775462962962 19.99583333333333)"/><use xlink:href="#v" transform="matrix(1,0,0,1,788,669.4973544973544) translate(87.34293981481481 19.99583333333333)"/><use xlink:href="#H" transform="matrix(1,0,0,1,788,669.4973544973544) translate(101.93827160493827 41.68472222222222)"/><use xlink:href="#x" transform="matrix(1,0,0,1,792,781.2261390679513) translate(0 16.1)"/><path d="M185.3 696.12v23.38c0 6.62 5.37 12 12 12h97.8" stroke="#666" fill="none"/><path d="M185.8 696.13h-1v-.5h1zM296 731.5l-17.93 10.6-.5-.85 16.47-9.75-16.48-9.75.5-.86z" fill="#666"/><path d="M185.3 696.12v226.34c0 6.63 5.37 12 12 12h97.8" stroke="#666" fill="none"/><path d="M185.8 696.13h-1v-.5h1zM296 934.46l-17.93 10.6-.5-.85 16.47-9.74-16.48-9.75.5-.85z" fill="#666"/><path d="M185.3 696.12v417.3c0 6.63 5.37 12 12 12h106.82" stroke="#666" fill="none"/><path d="M185.8 696.13h-1v-.5h1zM305.03 1125.43l-17.94 10.6-.52-.85 16.48-9.75-16.48-9.75.5-.86z" fill="#666"/><path d="M185.3 696.12v638.27c0 6.62 5.37 12 12 12h97.8" stroke="#666" fill="none"/><path d="M185.8 696.13h-1v-.5h1zM296 1346.4l-17.93 10.6-.5-.86 16.47-9.75-16.48-9.76.5-.86z" fill="#666"/><path d="M780 180h200v180H780z" stroke="#666" fill="#fff499"/><path d="M780 240.94h200m-200 81.48h200" stroke="#666" fill="none"/><use xlink:href="#d" transform="matrix(1,0,0,1,788,188) translate(67.37220293209876 16.524305555555554)"/><use xlink:href="#I" transform="matrix(1,0,0,1,788,188) translate(72.31047453703704 16.524305555555554)"/><use xlink:href="#J" transform="matrix(1,0,0,1,788,188) translate(14.598765432098745 37.857638888888886)"/><use xlink:href="#K" transform="matrix(1,0,0,1,792,248.9375) translate(0 15.000000000000002)"/><use xlink:href="#L" transform="matrix(1,0,0,1,792,248.9375) translate(0 36.6)"/><use xlink:href="#M" transform="matrix(1,0,0,1,792,248.9375) translate(0 58.2)"/><path d="M779 270H652.7c-6.64 0-12 5.37-12 12v129.7" stroke="#666" fill="none"/><path d="M779.5 270.5h-.5v-1h.5zM651.3 394.67l-10.6 17.95-10.62-17.95.86-.5 9.75 16.48 9.74-16.5z" fill="#666"/><path d="M779 270H197.3c-6.63 0-12 5.37-12 12v129.7" stroke="#666" fill="none"/><path d="M779.5 270.5h-.5v-1h.5zM195.9 394.67l-10.6 17.95-10.6-17.95.85-.5 9.75 16.48 9.75-16.5z" fill="#666"/><path d="M640.7 703.12v22.38c0 6.62 5.36 12 12 12h125.9" stroke="#666" fill="none"/><path d="M641.2 703.13h-1v-.5h1zM779.5 737.5l-17.94 10.6-.5-.85 16.48-9.75-16.5-9.75.52-.86z" fill="#666"/><path d="M981 270h737.25c6.63 0 12 5.37 12 12v130.1" stroke="#666" fill="none"/><path d="M981 270.5h-.5v-1h.5zM1740.86 395.07l-10.6 17.95-10.62-17.95.86-.5 9.75 16.48 9.75-16.48z" fill="#666"/><path d="M560.7 413.12h160v289h-160z" stroke="#666" fill="#c5ecc4"/><path d="M560.7 477.7h160m-160 186.67h160" stroke="#666" fill="none"/><use xlink:href="#u" transform="matrix(1,0,0,1,568.6904761904761,421.1158623676174) translate(23.157754629629622 19.99583333333333)"/><use xlink:href="#v" transform="matrix(1,0,0,1,568.6904761904761,421.1158623676174) translate(28.34293981481481 19.99583333333333)"/><use xlink:href="#N" transform="matrix(1,0,0,1,568.6904761904761,421.1158623676174) translate(35.55555555555555 41.68472222222222)"/><use xlink:href="#O" transform="matrix(1,0,0,1,572.6904761904761,485.7075290342841) translate(0 14.388888888888866)"/><use xlink:href="#P" transform="matrix(1,0,0,1,572.6904761904761,485.7075290342841) translate(0 35.7222222222222)"/><use xlink:href="#Q" transform="matrix(1,0,0,1,572.6904761904761,485.7075290342841) translate(0 57.055555555555536)"/><use xlink:href="#R" transform="matrix(1,0,0,1,572.6904761904761,485.7075290342841) translate(0 78.38888888888887)"/><use xlink:href="#S" transform="matrix(1,0,0,1,572.6904761904761,485.7075290342841) translate(0 99.72222222222221)"/><use xlink:href="#T" transform="matrix(1,0,0,1,572.6904761904761,485.7075290342841) translate(0 121.05555555555556)"/><use xlink:href="#U" transform="matrix(1,0,0,1,572.6904761904761,485.7075290342841) translate(0 142.3888888888889)"/><use xlink:href="#V" transform="matrix(1,0,0,1,572.6904761904761,485.7075290342841) translate(0 163.72222222222223)"/><use xlink:href="#W" transform="matrix(1,0,0,1,572.6904761904761,672.3741957009508) translate(0 14.555555555555555)"/><path d="M780 858.46h277.28v152H780z" stroke="#666" fill="#c5ecc4"/><path d="M780 923.05h277.28M780 970.2h277.28" stroke="#666" fill="none"/><use xlink:href="#o" transform="matrix(1,0,0,1,788,866.4622661734587) translate(82.15775462962962 19.99583333333333)"/><use xlink:href="#p" transform="matrix(1,0,0,1,788,866.4622661734587) translate(87.34293981481481 19.99583333333333)"/><use xlink:href="#X" transform="matrix(1,0,0,1,788,866.4622661734587) translate(115.24691358024691 41.68472222222222)"/><use xlink:href="#Y" transform="matrix(1,0,0,1,792,978.1910507440556) translate(0 16.1)"/><path d="M770.25 1055.43h277.27v152H770.25z" stroke="#666" fill="#c5ecc4"/><path d="M770.25 1120.02h277.27m-277.27 47.14h277.27" stroke="#666" fill="none"/><use xlink:href="#o" transform="matrix(1,0,0,1,778.2486772486773,1063.4271778495631) translate(82.15775462962962 19.99583333333333)"/><use xlink:href="#p" transform="matrix(1,0,0,1,778.2486772486773,1063.4271778495631) translate(87.34293981481481 19.99583333333333)"/><use xlink:href="#Z" transform="matrix(1,0,0,1,778.2486772486773,1063.4271778495631) translate(105.37037037037037 41.68472222222222)"/><use xlink:href="#aa" transform="matrix(1,0,0,1,782.2486772486773,1175.15596242016) translate(0 16.1)"/><path d="M640.7 703.12v219.34c0 6.63 5.36 12 12 12h125.9" stroke="#666" fill="none"/><path d="M641.2 703.13h-1v-.5h1zM779.5 934.46l-17.94 10.6-.5-.85 16.48-9.74-16.5-9.75.52-.85z" fill="#666"/><path d="M640.7 703.12v416.3c0 6.63 5.36 12 12 12h116.14" stroke="#666" fill="none"/><path d="M641.2 703.13h-1v-.5h1zM769.75 1131.43l-17.94 10.6-.5-.85 16.48-9.75-16.48-9.75.5-.86z" fill="#666"/><path d="M1195.2 413.52h200v173h-200z" stroke="#666" fill="#c5ecc4"/><path d="M1195.2 478.1h200m-200 67.33h200" stroke="#666" fill="none"/><use xlink:href="#o" transform="matrix(1,0,0,1,1203.2010582010582,421.51708513263475) translate(43.15775462962962 19.99583333333333)"/><use xlink:href="#p" transform="matrix(1,0,0,1,1203.2010582010582,421.51708513263475) translate(48.342939814814805 19.99583333333333)"/><use xlink:href="#ab" transform="matrix(1,0,0,1,1203.2010582010582,421.51708513263475) translate(45.30864197530864 41.68472222222222)"/><use xlink:href="#ac" transform="matrix(1,0,0,1,1207.2010582010582,486.10875179930144) translate(0 18.799999999999997)"/><use xlink:href="#ad" transform="matrix(1,0,0,1,1207.2010582010582,486.10875179930144) translate(0 40.4)"/><use xlink:href="#t" transform="matrix(1,0,0,1,1207.2010582010582,553.4310225416594) translate(0 16.6)"/><path d="M981 270h302.2c6.63 0 12 5.37 12 12v130.1M981 270h-.5" stroke="#666" fill="none"/><path d="M1305.8 395.07l-10.6 17.95-10.6-17.95.85-.5 9.75 16.48 9.75-16.48z" fill="#666"/><path d="M1418.85 670.52h277.28v173h-277.28z" stroke="#666" fill="#c5ecc4"/><path d="M1418.85 735.1h277.28m-277.28 68.75h277.28" stroke="#666" fill="none"/><use xlink:href="#o" transform="matrix(1,0,0,1,1426.8518518518517,678.5185185185185) translate(82.15775462962962 19.99583333333333)"/><use xlink:href="#p" transform="matrix(1,0,0,1,1426.8518518518517,678.5185185185185) translate(87.34293981481481 19.99583333333333)"/><use xlink:href="#ae" transform="matrix(1,0,0,1,1426.8518518518517,678.5185185185185) translate(80.38271604938271 41.68472222222222)"/><g><use xlink:href="#af" transform="matrix(1,0,0,1,1430.8518518518517,743.1101851851852) translate(0 19.299999999999997)"/><use xlink:href="#ag" transform="matrix(1,0,0,1,1430.8518518518517,743.1101851851852) translate(0 40.9)"/></g><g><use xlink:href="#t" transform="matrix(1,0,0,1,1430.8518518518517,811.8473030891153) translate(0 16.1)"/></g><path d="M1730.25 587.52v157.5c0 6.63-5.37 12-12 12h-20.7" stroke="#666" fill="none"/><path d="M1730.75 587.53h-1v-.5h1zM1715.08 747.27l-16.5 9.75 16.5 9.75-.5.86-17.95-10.6 17.94-10.62z" fill="#666"/><path d="M1418.85 896.2h277.28v173h-277.28z" stroke="#666" fill="#c5ecc4"/><path d="M1418.85 960.8h277.28m-277.28 68.73h277.28" stroke="#666" fill="none"/><g><use xlink:href="#o" transform="matrix(1,0,0,1,1426.8518518518517,904.2010582010582) translate(82.15775462962962 19.99583333333333)"/><use xlink:href="#p" transform="matrix(1,0,0,1,1426.8518518518517,904.2010582010582) translate(87.34293981481481 19.99583333333333)"/><use xlink:href="#X" transform="matrix(1,0,0,1,1426.8518518518517,904.2010582010582) translate(115.24691358024691 41.68472222222222)"/></g><g><use xlink:href="#r" transform="matrix(1,0,0,1,1430.8518518518517,968.7927248677249) translate(0 19.299999999999997)"/><use xlink:href="#s" transform="matrix(1,0,0,1,1430.8518518518517,968.7927248677249) translate(0 40.9)"/></g><g><use xlink:href="#Y" transform="matrix(1,0,0,1,1430.8518518518517,1037.529842771655) translate(0 16.1)"/></g><path d="M1418.85 1121.88h277.28v173h-277.28z" stroke="#666" fill="#c5ecc4"/><path d="M1418.85 1186.48h277.28m-277.28 68.73h277.28" stroke="#666" fill="none"/><g><use xlink:href="#o" transform="matrix(1,0,0,1,1426.8518518518517,1129.883597883598) translate(82.15775462962962 19.99583333333333)"/><use xlink:href="#p" transform="matrix(1,0,0,1,1426.8518518518517,1129.883597883598) translate(87.34293981481481 19.99583333333333)"/><use xlink:href="#Z" transform="matrix(1,0,0,1,1426.8518518518517,1129.883597883598) translate(105.37037037037037 41.68472222222222)"/></g><g><use xlink:href="#r" transform="matrix(1,0,0,1,1430.8518518518517,1194.4752645502647) translate(0 19.299999999999997)"/><use xlink:href="#s" transform="matrix(1,0,0,1,1430.8518518518517,1194.4752645502647) translate(0 40.9)"/></g><g><use xlink:href="#ah" transform="matrix(1,0,0,1,1430.8518518518517,1263.2123824541948) translate(0 16.1)"/></g><path d="M1557.5 844.52v50.27" stroke="#666" fill="none"/><path d="M1558 844.53h-1v-.5h1zM1568.1 877.76l-10.6 17.94-10.62-17.94.86-.5 9.75 16.48 9.74-16.5z" fill="#666"/><path d="M1557.5 1070.2v50.27" stroke="#666" fill="none"/><path d="M1558 1070.2h-1v-.5h1zM1568.1 1103.44l-10.6 17.94-10.62-17.94.86-.5 9.75 16.48 9.74-16.5z" fill="#666"/><path d="M2056.05 413.12h200v173h-200z" stroke="#666" fill="#c5ecc4"/><path d="M2056.05 477.7h200m-200 67.33h200" stroke="#666" fill="none"/><g><use xlink:href="#o" transform="matrix(1,0,0,1,2064.050396222071,421.1158623676174) translate(43.15775462962962 19.99583333333333)"/><use xlink:href="#p" transform="matrix(1,0,0,1,2064.050396222071,421.1158623676174) translate(48.342939814814805 19.99583333333333)"/><use xlink:href="#ai" transform="matrix(1,0,0,1,2064.050396222071,421.1158623676174) translate(25.555555555555557 41.68472222222222)"/></g><g><use xlink:href="#aj" transform="matrix(1,0,0,1,2068.050396222071,485.7075290342841) translate(0 18.799999999999997)"/><use xlink:href="#ak" transform="matrix(1,0,0,1,2068.050396222071,485.7075290342841) translate(0 40.4)"/></g><g><use xlink:href="#t" transform="matrix(1,0,0,1,2068.050396222071,553.0297997766421) translate(0 16.6)"/></g><path d="M981 270h1163.05c6.63 0 12 5.37 12 12v129.7" stroke="#666" fill="none"/><path d="M981 270.5h-.5v-1h.5zM2166.66 394.67l-10.6 17.95-10.62-17.95.86-.5 9.75 16.48 9.75-16.5z" fill="#666"/><path d="M1820.43 896.2h277.27v173h-277.27z" stroke="#666" fill="#c5ecc4"/><path d="M1820.43 960.8h277.27m-277.27 68.73h277.27" stroke="#666" fill="none"/><g><use xlink:href="#o" transform="matrix(1,0,0,1,1828.428571428571,904.2010582010582) translate(82.15775462962962 19.99583333333333)"/><use xlink:href="#p" transform="matrix(1,0,0,1,1828.428571428571,904.2010582010582) translate(87.34293981481481 19.99583333333333)"/><use xlink:href="#al" transform="matrix(1,0,0,1,1828.428571428571,904.2010582010582) translate(80.28395061728395 41.68472222222222)"/></g><g><use xlink:href="#am" transform="matrix(1,0,0,1,1832.428571428571,968.7927248677249) translate(0 19.299999999999997)"/><use xlink:href="#an" transform="matrix(1,0,0,1,1832.428571428571,968.7927248677249) translate(0 40.9)"/></g><g><use xlink:href="#t" transform="matrix(1,0,0,1,1832.428571428571,1037.529842771655) translate(0 16.1)"/></g><path d="M1820.43 670.52h277.27v173h-277.27z" stroke="#666" fill="#c5ecc4"/><path d="M1820.43 735.1h277.27m-277.27 68.75h277.27" stroke="#666" fill="none"/><g><use xlink:href="#o" transform="matrix(1,0,0,1,1828.428571428571,678.5185185185185) translate(82.15775462962962 19.99583333333333)"/><use xlink:href="#p" transform="matrix(1,0,0,1,1828.428571428571,678.5185185185185) translate(87.34293981481481 19.99583333333333)"/><use xlink:href="#ao" transform="matrix(1,0,0,1,1828.428571428571,678.5185185185185) translate(80.28395061728395 41.68472222222222)"/></g><g><use xlink:href="#am" transform="matrix(1,0,0,1,1832.428571428571,743.1101851851852) translate(0 19.299999999999997)"/><use xlink:href="#an" transform="matrix(1,0,0,1,1832.428571428571,743.1101851851852) translate(0 40.9)"/></g><g><use xlink:href="#t" transform="matrix(1,0,0,1,1832.428571428571,811.8473030891153) translate(0 16.1)"/></g><path d="M2156.05 587.12v157.9c0 6.63-5.37 12-12 12h-44.94" stroke="#666" fill="none"/><path d="M2156.55 587.13h-1v-.5h1zM2116.66 747.27l-16.5 9.75 16.5 9.75-.5.86-17.96-10.6 17.95-10.62z" fill="#666"/><path d="M2156.05 587.12V970.7c0 6.63-5.37 12-12 12h-44.94" stroke="#666" fill="none"/><path d="M2156.55 587.13h-1v-.5h1zM2116.66 972.95l-16.5 9.75 16.5 9.75-.5.86-17.96-10.6 17.95-10.6z" fill="#666"/><defs><path d="M24 0v-248h195v40H76v63h132v40H76v65h150V0H24" id="ap"/><path d="M135-194c87-1 58 113 63 194h-50c-7-57 23-157-34-157-59 0-34 97-39 157H25l-1-190h47c2 12-1 28 3 38 12-26 28-41 61-42" id="aq"/><path d="M88-194c31-1 46 15 58 34l-1-101h50l1 261h-48c-2-10 0-23-3-31C134-8 116 4 84 4 32 4 16-41 15-95c0-56 19-97 73-99zm17 164c33 0 40-30 41-66 1-37-9-64-41-64s-38 30-39 65c0 43 13 65 39 65" id="ar"/><path d="M14-72v-43h91v43H14" id="as"/><path d="M24-248c93 1 206-16 204 79-1 75-69 88-152 82V0H24v-248zm52 121c47 0 100 7 100-41 0-47-54-39-100-39v80" id="at"/><path d="M110-194c64 0 96 36 96 99 0 64-35 99-97 99-61 0-95-36-95-99 0-62 34-99 96-99zm-1 164c35 0 45-28 45-65 0-40-10-65-43-65-34 0-45 26-45 65 0 36 10 65 43 65" id="au"/><path d="M25-224v-37h50v37H25zM25 0v-190h50V0H25" id="av"/><path d="M115-3C79 11 28 4 28-45v-112H4v-33h27l15-45h31v45h36v33H77v99c-1 23 16 31 38 25v30" id="aw"/><g id="a"><use transform="matrix(0.0728395061728395,0,0,0.0728395061728395,0,0)" xlink:href="#ap"/><use transform="matrix(0.0728395061728395,0,0,0.0728395061728395,17.48148148148148,0)" xlink:href="#aq"/><use transform="matrix(0.0728395061728395,0,0,0.0728395061728395,33.43333333333333,0)" xlink:href="#ar"/><use transform="matrix(0.0728395061728395,0,0,0.0728395061728395,49.38518518518518,0)" xlink:href="#as"/><use transform="matrix(0.0728395061728395,0,0,0.0728395061728395,58.05308641975308,0)" xlink:href="#at"/><use transform="matrix(0.0728395061728395,0,0,0.0728395061728395,75.53456790123457,0)" xlink:href="#au"/><use transform="matrix(0.0728395061728395,0,0,0.0728395061728395,91.48641975308642,0)" xlink:href="#av"/><use transform="matrix(0.0728395061728395,0,0,0.0728395061728395,98.77037037037037,0)" xlink:href="#aq"/><use transform="matrix(0.0728395061728395,0,0,0.0728395061728395,114.72222222222224,0)" xlink:href="#aw"/></g><path d="M199 0l-22-63H83L61 0H9l90-248h61L250 0h-51zm-33-102l-36-108c-10 38-24 72-36 108h72" id="ax"/><path d="M24 0v-248h52V0H24" id="ay"/><g id="b"><use transform="matrix(0.0728395061728395,0,0,0.0728395061728395,0,0)" xlink:href="#ax"/><use transform="matrix(0.0728395061728395,0,0,0.0728395061728395,18.86543209876543,0)" xlink:href="#at"/><use transform="matrix(0.0728395061728395,0,0,0.0728395061728395,36.34691358024691,0)" xlink:href="#ay"/></g><path d="M24-248c120-7 223 5 221 122C244-46 201 0 124 0H24v-248zM76-40c74 7 117-18 117-86 0-67-45-88-117-82v168" id="az"/><path d="M133-34C117-15 103 5 69 4 32 3 11-16 11-54c-1-60 55-63 116-61 1-26-3-47-28-47-18 1-26 9-28 27l-52-2c7-38 36-58 82-57s74 22 75 68l1 82c-1 14 12 18 25 15v27c-30 8-71 5-69-32zm-48 3c29 0 43-24 42-57-32 0-66-3-65 30 0 17 8 27 23 27" id="aA"/><path d="M195-6C206 82 75 100 31 46c-4-6-6-13-8-21l49-6c3 16 16 24 34 25 40 0 42-37 40-79-11 22-30 35-61 35-53 0-70-43-70-97 0-56 18-96 73-97 30 0 46 14 59 34l2-30h47zm-90-29c32 0 41-27 41-63 0-35-9-62-40-62-32 0-39 29-40 63 0 36 9 62 39 62" id="aB"/><path d="M135-150c-39-12-60 13-60 57V0H25l-1-190h47c2 13-1 29 3 40 6-28 27-53 61-41v41" id="aC"/><path d="M220-157c-53 9-28 100-34 157h-49v-107c1-27-5-49-29-50C55-147 81-57 75 0H25l-1-190h47c2 12-1 28 3 38 10-53 101-56 108 0 13-22 24-43 59-42 82 1 51 116 57 194h-49v-107c-1-25-5-48-29-50" id="aD"/><g id="c"><use transform="matrix(0.0728395061728395,0,0,0.0728395061728395,0,0)" xlink:href="#az"/><use transform="matrix(0.0728395061728395,0,0,0.0728395061728395,18.86543209876543,0)" xlink:href="#av"/><use transform="matrix(0.0728395061728395,0,0,0.0728395061728395,26.14938271604938,0)" xlink:href="#aA"/><use transform="matrix(0.0728395061728395,0,0,0.0728395061728395,40.717283950617286,0)" xlink:href="#aB"/><use transform="matrix(0.0728395061728395,0,0,0.0728395061728395,56.66913580246913,0)" xlink:href="#aC"/><use transform="matrix(0.0728395061728395,0,0,0.0728395061728395,66.86666666666666,0)" xlink:href="#aA"/><use transform="matrix(0.0728395061728395,0,0,0.0728395061728395,81.43456790123457,0)" xlink:href="#aD"/></g><path fill="#666" d="M280-548l258 397H397L102-539v-19l295-389h141zm330 0l258 397H727L432-539v-19l295-389h141" id="aE"/><path fill="#666" d="M114-163C36-179 61-72 57 0H25l-1-190h30c1 12-1 29 2 39 6-27 23-49 58-41v29" id="aF"/><path fill="#666" d="M100-194c63 0 86 42 84 106H49c0 40 14 67 53 68 26 1 43-12 49-29l28 8c-11 28-37 45-77 45C44 4 14-33 15-96c1-61 26-98 85-98zm52 81c6-60-76-77-97-28-3 7-6 17-6 28h103" id="aG"/><path fill="#666" d="M135-143c-3-34-86-38-87 0 15 53 115 12 119 90S17 21 10-45l28-5c4 36 97 45 98 0-10-56-113-15-118-90-4-57 82-63 122-42 12 7 21 19 24 35" id="aH"/><path fill="#666" d="M100-194c62-1 85 37 85 99 1 63-27 99-86 99S16-35 15-95c0-66 28-99 85-99zM99-20c44 1 53-31 53-75 0-43-8-75-51-75s-53 32-53 75 10 74 51 75" id="aI"/><path fill="#666" d="M84 4C-5 8 30-112 23-190h32v120c0 31 7 50 39 49 72-2 45-101 50-169h31l1 190h-30c-1-10 1-25-2-33-11 22-28 36-60 37" id="aJ"/><path fill="#666" d="M96-169c-40 0-48 33-48 73s9 75 48 75c24 0 41-14 43-38l32 2c-6 37-31 61-74 61-59 0-76-41-82-99-10-93 101-131 147-64 4 7 5 14 7 22l-32 3c-4-21-16-35-41-35" id="aK"/><path fill="#666" d="M244-949l295 389v19L244-152H102l258-398-258-399h142zm349 0l295 389v19L593-152H451l258-398-258-399h142" id="aL"/><g id="e"><use transform="matrix(0.008680555555555556,0,0,0.008680555555555556,0,0)" xlink:href="#aE"/><use transform="matrix(0.04938271604938272,0,0,0.04938271604938272,8.34201388888889,0)" xlink:href="#aF"/><use transform="matrix(0.04938271604938272,0,0,0.04938271604938272,14.218557098765434,0)" xlink:href="#aG"/><use transform="matrix(0.04938271604938272,0,0,0.04938271604938272,24.095100308641978,0)" xlink:href="#aH"/><use transform="matrix(0.04938271604938272,0,0,0.04938271604938272,32.98398919753087,0)" xlink:href="#aI"/><use transform="matrix(0.04938271604938272,0,0,0.04938271604938272,42.86053240740741,0)" xlink:href="#aJ"/><use transform="matrix(0.04938271604938272,0,0,0.04938271604938272,52.737075617283956,0)" xlink:href="#aF"/><use transform="matrix(0.04938271604938272,0,0,0.04938271604938272,58.6136188271605,0)" xlink:href="#aK"/><use transform="matrix(0.04938271604938272,0,0,0.04938271604938272,67.5025077160494,0)" xlink:href="#aG"/><use transform="matrix(0.008680555555555556,0,0,0.008680555555555556,77.37905092592594,0)" xlink:href="#aL"/></g><path fill="#666" d="M85 4C-2 5 27-109 22-190h50c7 57-23 150 33 157 60-5 35-97 40-157h50l1 190h-47c-2-12 1-28-3-38-12 25-28 42-61 42" id="aM"/><path fill="#666" d="M137-138c1-29-70-34-71-4 15 46 118 7 119 86 1 83-164 76-172 9l43-7c4 19 20 25 44 25 33 8 57-30 24-41C81-84 22-81 20-136c-2-80 154-74 161-7" id="aN"/><path fill="#666" d="M185-48c-13 30-37 53-82 52C43 2 14-33 14-96s30-98 90-98c62 0 83 45 84 108H66c0 31 8 55 39 56 18 0 30-7 34-22zm-45-69c5-46-57-63-70-21-2 6-4 13-4 21h74" id="aO"/><path fill="#666" d="M135-150c-39-12-60 13-60 57V0H25l-1-190h47c2 13-1 29 3 40 6-28 27-53 61-41v41" id="aP"/><g id="f"><use transform="matrix(0.04938271604938272,0,0,0.04938271604938272,0,0)" xlink:href="#aM"/><use transform="matrix(0.04938271604938272,0,0,0.04938271604938272,10.814814814814815,0)" xlink:href="#aN"/><use transform="matrix(0.04938271604938272,0,0,0.04938271604938272,20.69135802469136,0)" xlink:href="#aO"/><use transform="matrix(0.04938271604938272,0,0,0.04938271604938272,30.567901234567906,0)" xlink:href="#aP"/><use transform="matrix(0.04938271604938272,0,0,0.04938271604938272,37.48148148148149,0)" xlink:href="#aN"/></g><path fill="#666" d="M24-231v-30h32v30H24zM24 0v-190h32V0H24" id="aQ"/><path fill="#666" d="M85-194c31 0 48 13 60 33l-1-100h32l1 261h-30c-2-10 0-23-3-31C134-8 116 4 85 4 32 4 16-35 15-94c0-66 23-100 70-100zm9 24c-40 0-46 34-46 75 0 40 6 74 45 74 42 0 51-32 51-76 0-42-9-74-50-73" id="aR"/><g id="g"><use transform="matrix(0.04938271604938272,0,0,0.04938271604938272,0,0)" xlink:href="#aQ"/><use transform="matrix(0.04938271604938272,0,0,0.04938271604938272,3.901234567901235,0)" xlink:href="#aR"/></g><path fill="#666" d="M117-194c89-4 53 116 60 194h-32v-121c0-31-8-49-39-48C34-167 62-67 57 0H25l-1-190h30c1 10-1 24 2 32 11-22 29-35 61-36" id="aS"/><path fill="#666" d="M141-36C126-15 110 5 73 4 37 3 15-17 15-53c-1-64 63-63 125-63 3-35-9-54-41-54-24 1-41 7-42 31l-33-3c5-37 33-52 76-52 45 0 72 20 72 64v82c-1 20 7 32 28 27v20c-31 9-61-2-59-35zM48-53c0 20 12 33 32 33 41-3 63-29 60-74-43 2-92-5-92 41" id="aT"/><path fill="#666" d="M210-169c-67 3-38 105-44 169h-31v-121c0-29-5-50-35-48C34-165 62-65 56 0H25l-1-190h30c1 10-1 24 2 32 10-44 99-50 107 0 11-21 27-35 58-36 85-2 47 119 55 194h-31v-121c0-29-5-49-35-48" id="aU"/><g id="h"><use transform="matrix(0.04938271604938272,0,0,0.04938271604938272,0,0)" xlink:href="#aJ"/><use transform="matrix(0.04938271604938272,0,0,0.04938271604938272,9.876543209876544,0)" xlink:href="#aH"/><use transform="matrix(0.04938271604938272,0,0,0.04938271604938272,18.765432098765434,0)" xlink:href="#aG"/><use transform="matrix(0.04938271604938272,0,0,0.04938271604938272,28.641975308641978,0)" xlink:href="#aF"/><use transform="matrix(0.04938271604938272,0,0,0.04938271604938272,34.51851851851852,0)" xlink:href="#aS"/><use transform="matrix(0.04938271604938272,0,0,0.04938271604938272,44.39506172839506,0)" xlink:href="#aT"/><use transform="matrix(0.04938271604938272,0,0,0.04938271604938272,54.27160493827161,0)" xlink:href="#aU"/><use transform="matrix(0.04938271604938272,0,0,0.04938271604938272,69.03703703703704,0)" xlink:href="#aG"/></g><path fill="#666" d="M106-169C34-169 62-67 57 0H25v-261h32l-1 103c12-21 28-36 61-36 89 0 53 116 60 194h-32v-121c2-32-8-49-39-48" id="aV"/><path fill="#666" d="M30-248c87 1 191-15 191 75 0 78-77 80-158 76V0H30v-248zm33 125c57 0 124 11 124-50 0-59-68-47-124-48v98" id="aW"/><path fill="#666" d="M206 0h-36l-40-164L89 0H53L-1-190h32L70-26l43-164h34l41 164 42-164h31" id="aX"/><g id="i"><use transform="matrix(0.04938271604938272,0,0,0.04938271604938272,0,0)" xlink:href="#aV"/><use transform="matrix(0.04938271604938272,0,0,0.04938271604938272,9.876543209876544,0)" xlink:href="#aT"/><use transform="matrix(0.04938271604938272,0,0,0.04938271604938272,19.75308641975309,0)" xlink:href="#aH"/><use transform="matrix(0.04938271604938272,0,0,0.04938271604938272,28.641975308641978,0)" xlink:href="#aV"/><use transform="matrix(0.04938271604938272,0,0,0.04938271604938272,38.51851851851852,0)" xlink:href="#aG"/><use transform="matrix(0.04938271604938272,0,0,0.04938271604938272,48.39506172839506,0)" xlink:href="#aR"/><use transform="matrix(0.04938271604938272,0,0,0.04938271604938272,58.27160493827161,0)" xlink:href="#aW"/><use transform="matrix(0.04938271604938272,0,0,0.04938271604938272,70.12345679012346,0)" xlink:href="#aT"/><use transform="matrix(0.04938271604938272,0,0,0.04938271604938272,80,0)" xlink:href="#aH"/><use transform="matrix(0.04938271604938272,0,0,0.04938271604938272,88.88888888888889,0)" xlink:href="#aH"/><use transform="matrix(0.04938271604938272,0,0,0.04938271604938272,97.77777777777777,0)" xlink:href="#aX"/><use transform="matrix(0.04938271604938272,0,0,0.04938271604938272,110.56790123456788,0)" xlink:href="#aI"/><use transform="matrix(0.04938271604938272,0,0,0.04938271604938272,120.44444444444443,0)" xlink:href="#aF"/><use transform="matrix(0.04938271604938272,0,0,0.04938271604938272,126.320987654321,0)" xlink:href="#aR"/></g><path fill="#666" d="M101-234c-31-9-42 10-38 44h38v23H63V0H32v-167H5v-23h27c-7-52 17-82 69-68v24" id="aY"/><path fill="#666" d="M59-47c-2 24 18 29 38 22v24C64 9 27 4 27-40v-127H5v-23h24l9-43h21v43h35v23H59v120" id="aZ"/><path fill="#666" d="M190 0L58-211 59 0H30v-248h39L202-35l-2-213h31V0h-41" id="ba"/><g id="j"><use transform="matrix(0.04938271604938272,0,0,0.04938271604938272,0,0)" xlink:href="#aY"/><use transform="matrix(0.04938271604938272,0,0,0.04938271604938272,4.938271604938272,0)" xlink:href="#aQ"/><use transform="matrix(0.04938271604938272,0,0,0.04938271604938272,8.839506172839506,0)" xlink:href="#aF"/><use transform="matrix(0.04938271604938272,0,0,0.04938271604938272,14.71604938271605,0)" xlink:href="#aH"/><use transform="matrix(0.04938271604938272,0,0,0.04938271604938272,23.60493827160494,0)" xlink:href="#aZ"/><use transform="matrix(0.04938271604938272,0,0,0.04938271604938272,28.543209876543212,0)" xlink:href="#ba"/><use transform="matrix(0.04938271604938272,0,0,0.04938271604938272,41.333333333333336,0)" xlink:href="#aT"/><use transform="matrix(0.04938271604938272,0,0,0.04938271604938272,51.20987654320988,0)" xlink:href="#aU"/><use transform="matrix(0.04938271604938272,0,0,0.04938271604938272,65.97530864197532,0)" xlink:href="#aG"/></g><path fill="#666" d="M24 0v-261h32V0H24" id="bb"/><g id="k"><use transform="matrix(0.04938271604938272,0,0,0.04938271604938272,0,0)" xlink:href="#bb"/><use transform="matrix(0.04938271604938272,0,0,0.04938271604938272,3.901234567901235,0)" xlink:href="#aT"/><use transform="matrix(0.04938271604938272,0,0,0.04938271604938272,13.777777777777779,0)" xlink:href="#aH"/><use transform="matrix(0.04938271604938272,0,0,0.04938271604938272,22.666666666666668,0)" xlink:href="#aZ"/><use transform="matrix(0.04938271604938272,0,0,0.04938271604938272,27.60493827160494,0)" xlink:href="#ba"/><use transform="matrix(0.04938271604938272,0,0,0.04938271604938272,40.39506172839506,0)" xlink:href="#aT"/><use transform="matrix(0.04938271604938272,0,0,0.04938271604938272,50.27160493827161,0)" xlink:href="#aU"/><use transform="matrix(0.04938271604938272,0,0,0.04938271604938272,65.03703703703704,0)" xlink:href="#aG"/></g><g id="l"><use transform="matrix(0.04938271604938272,0,0,0.04938271604938272,0,0)" xlink:href="#aY"/><use transform="matrix(0.04938271604938272,0,0,0.04938271604938272,4.938271604938272,0)" xlink:href="#aQ"/><use transform="matrix(0.04938271604938272,0,0,0.04938271604938272,8.839506172839506,0)" xlink:href="#aH"/><use transform="matrix(0.04938271604938272,0,0,0.04938271604938272,17.728395061728396,0)" xlink:href="#aK"/><use transform="matrix(0.04938271604938272,0,0,0.04938271604938272,26.617283950617285,0)" xlink:href="#aT"/><use transform="matrix(0.04938271604938272,0,0,0.04938271604938272,36.49382716049383,0)" xlink:href="#bb"/><use transform="matrix(0.04938271604938272,0,0,0.04938271604938272,40.39506172839506,0)" xlink:href="#aK"/><use transform="matrix(0.04938271604938272,0,0,0.04938271604938272,49.28395061728395,0)" xlink:href="#aI"/><use transform="matrix(0.04938271604938272,0,0,0.04938271604938272,59.1604938271605,0)" xlink:href="#aR"/><use transform="matrix(0.04938271604938272,0,0,0.04938271604938272,69.03703703703704,0)" xlink:href="#aG"/></g><path fill="#666" d="M115-194c53 0 69 39 70 98 0 66-23 100-70 100C84 3 66-7 56-30L54 0H23l1-261h32v101c10-23 28-34 59-34zm-8 174c40 0 45-34 45-75 0-40-5-75-45-74-42 0-51 32-51 76 0 43 10 73 51 73" id="bc"/><g id="m"><use transform="matrix(0.04938271604938272,0,0,0.04938271604938272,0,0)" xlink:href="#aW"/><use transform="matrix(0.04938271604938272,0,0,0.04938271604938272,11.851851851851853,0)" xlink:href="#aV"/><use transform="matrix(0.04938271604938272,0,0,0.04938271604938272,21.7283950617284,0)" xlink:href="#aI"/><use transform="matrix(0.04938271604938272,0,0,0.04938271604938272,31.60493827160494,0)" xlink:href="#aS"/><use transform="matrix(0.04938271604938272,0,0,0.04938271604938272,41.48148148148149,0)" xlink:href="#aG"/><use transform="matrix(0.04938271604938272,0,0,0.04938271604938272,51.35802469135803,0)" xlink:href="#aS"/><use transform="matrix(0.04938271604938272,0,0,0.04938271604938272,61.23456790123457,0)" xlink:href="#aJ"/><use transform="matrix(0.04938271604938272,0,0,0.04938271604938272,71.11111111111111,0)" xlink:href="#aU"/><use transform="matrix(0.04938271604938272,0,0,0.04938271604938272,85.87654320987654,0)" xlink:href="#bc"/><use transform="matrix(0.04938271604938272,0,0,0.04938271604938272,95.75308641975309,0)" xlink:href="#aG"/><use transform="matrix(0.04938271604938272,0,0,0.04938271604938272,105.62962962962963,0)" xlink:href="#aF"/></g><path fill="#666" d="M140-251c81 0 123 46 123 126C263-46 219 4 140 4 59 4 17-45 17-125s42-126 123-126zm0 227c63 0 89-41 89-101s-29-99-89-99c-61 0-89 39-89 99S79-25 140-24" id="bd"/><path fill="#666" d="M185-189c-5-48-123-54-124 2 14 75 158 14 163 119 3 78-121 87-175 55-17-10-28-26-33-46l33-7c5 56 141 63 141-1 0-78-155-14-162-118-5-82 145-84 179-34 5 7 8 16 11 25" id="be"/><path fill="#666" d="M127-220V0H93v-220H8v-28h204v28h-85" id="bf"/><path fill="#666" d="M87 75C49 33 22-17 22-94c0-76 28-126 65-167h31c-38 41-64 92-64 168S80 34 118 75H87" id="bg"/><path fill="#666" d="M179-190L93 31C79 59 56 82 12 73V49c39 6 53-20 64-50L1-190h34L92-34l54-156h33" id="bh"/><path fill="#666" d="M33-261c38 41 65 92 65 168S71 34 33 75H2C39 34 66-17 66-93S39-220 2-261h31" id="bi"/><g id="n"><use transform="matrix(0.04938271604938272,0,0,0.04938271604938272,0,0)" xlink:href="#aW"/><use transform="matrix(0.04938271604938272,0,0,0.04938271604938272,11.851851851851853,0)" xlink:href="#bd"/><use transform="matrix(0.04938271604938272,0,0,0.04938271604938272,25.679012345679016,0)" xlink:href="#be"/><use transform="matrix(0.04938271604938272,0,0,0.04938271604938272,37.53086419753087,0)" xlink:href="#bf"/><use transform="matrix(0.04938271604938272,0,0,0.04938271604938272,48.345679012345684,0)" xlink:href="#bg"/><use transform="matrix(0.04938271604938272,0,0,0.04938271604938272,54.22222222222223,0)" xlink:href="#bc"/><use transform="matrix(0.04938271604938272,0,0,0.04938271604938272,64.09876543209877,0)" xlink:href="#aI"/><use transform="matrix(0.04938271604938272,0,0,0.04938271604938272,73.97530864197532,0)" xlink:href="#aR"/><use transform="matrix(0.04938271604938272,0,0,0.04938271604938272,83.85185185185186,0)" xlink:href="#bh"/><use transform="matrix(0.04938271604938272,0,0,0.04938271604938272,92.74074074074075,0)" xlink:href="#bi"/></g><g id="p"><use transform="matrix(0.010416666666666668,0,0,0.010416666666666668,0,0)" xlink:href="#aE"/><use transform="matrix(0.05185185185185186,0,0,0.05185185185185186,10.010416666666668,0)" xlink:href="#aF"/><use transform="matrix(0.05185185185185186,0,0,0.05185185185185186,16.18078703703704,0)" xlink:href="#aG"/><use transform="matrix(0.05185185185185186,0,0,0.05185185185185186,26.55115740740741,0)" xlink:href="#aH"/><use transform="matrix(0.05185185185185186,0,0,0.05185185185185186,35.884490740740745,0)" xlink:href="#aI"/><use transform="matrix(0.05185185185185186,0,0,0.05185185185185186,46.25486111111112,0)" xlink:href="#aJ"/><use transform="matrix(0.05185185185185186,0,0,0.05185185185185186,56.62523148148149,0)" xlink:href="#aF"/><use transform="matrix(0.05185185185185186,0,0,0.05185185185185186,62.79560185185186,0)" xlink:href="#aK"/><use transform="matrix(0.05185185185185186,0,0,0.05185185185185186,72.1289351851852,0)" xlink:href="#aG"/><use transform="matrix(0.010416666666666668,0,0,0.010416666666666668,82.49930555555557,0)" xlink:href="#aL"/></g><path fill="#666" d="M147 0H94L2-248h55l64 206c17-72 42-137 63-206h54" id="bj"/><path fill="#666" d="M25-224v-37h50v37H25zM25 0v-190h50V0H25" id="bk"/><path fill="#666" d="M231 0h-52l-39-155L100 0H48L-1-190h46L77-45c9-52 24-97 36-145h53l37 145 32-145h46" id="bl"/><path fill="#666" d="M230 0l2-204L168 0h-37L68-204 70 0H24v-248h70l56 185 57-185h69V0h-46" id="bm"/><g id="q"><use transform="matrix(0.04938271604938272,0,0,0.04938271604938272,0,0)" xlink:href="#bj"/><use transform="matrix(0.04938271604938272,0,0,0.04938271604938272,11.506172839506174,0)" xlink:href="#bk"/><use transform="matrix(0.04938271604938272,0,0,0.04938271604938272,16.444444444444446,0)" xlink:href="#aO"/><use transform="matrix(0.04938271604938272,0,0,0.04938271604938272,26.32098765432099,0)" xlink:href="#bl"/><use transform="matrix(0.04938271604938272,0,0,0.04938271604938272,40.14814814814815,0)" xlink:href="#bm"/><use transform="matrix(0.04938271604938272,0,0,0.04938271604938272,54.91358024691358,0)" xlink:href="#aO"/></g><g id="r"><use transform="matrix(0.05,0,0,0.05,0,0)" xlink:href="#aQ"/><use transform="matrix(0.05,0,0,0.05,3.95,0)" xlink:href="#aR"/></g><g id="s"><use transform="matrix(0.05,0,0,0.05,0,0)" xlink:href="#aJ"/><use transform="matrix(0.05,0,0,0.05,10,0)" xlink:href="#aH"/><use transform="matrix(0.05,0,0,0.05,19,0)" xlink:href="#aG"/><use transform="matrix(0.05,0,0,0.05,29,0)" xlink:href="#aF"/><use transform="matrix(0.05,0,0,0.05,34.95,0)" xlink:href="#aS"/><use transform="matrix(0.05,0,0,0.05,44.95,0)" xlink:href="#aT"/><use transform="matrix(0.05,0,0,0.05,54.95,0)" xlink:href="#aU"/><use transform="matrix(0.05,0,0,0.05,69.9,0)" xlink:href="#aG"/></g><g id="t"><use transform="matrix(0.05,0,0,0.05,0,0)" xlink:href="#aW"/><use transform="matrix(0.05,0,0,0.05,12,0)" xlink:href="#bd"/><use transform="matrix(0.05,0,0,0.05,26,0)" xlink:href="#be"/><use transform="matrix(0.05,0,0,0.05,38,0)" xlink:href="#bf"/><use transform="matrix(0.05,0,0,0.05,48.95,0)" xlink:href="#bg"/><use transform="matrix(0.05,0,0,0.05,54.900000000000006,0)" xlink:href="#bc"/><use transform="matrix(0.05,0,0,0.05,64.9,0)" xlink:href="#aI"/><use transform="matrix(0.05,0,0,0.05,74.9,0)" xlink:href="#aR"/><use transform="matrix(0.05,0,0,0.05,84.9,0)" xlink:href="#bh"/><use transform="matrix(0.05,0,0,0.05,93.9,0)" xlink:href="#bi"/></g><g id="v"><use transform="matrix(0.010416666666666668,0,0,0.010416666666666668,0,0)" xlink:href="#aE"/><use transform="matrix(0.05185185185185186,0,0,0.05185185185185186,10.010416666666668,0)" xlink:href="#aF"/><use transform="matrix(0.05185185185185186,0,0,0.05185185185185186,16.18078703703704,0)" xlink:href="#aG"/><use transform="matrix(0.05185185185185186,0,0,0.05185185185185186,26.55115740740741,0)" xlink:href="#aH"/><use transform="matrix(0.05185185185185186,0,0,0.05185185185185186,35.884490740740745,0)" xlink:href="#aI"/><use transform="matrix(0.05185185185185186,0,0,0.05185185185185186,46.25486111111112,0)" xlink:href="#aJ"/><use transform="matrix(0.05185185185185186,0,0,0.05185185185185186,56.62523148148149,0)" xlink:href="#aF"/><use transform="matrix(0.05185185185185186,0,0,0.05185185185185186,62.79560185185186,0)" xlink:href="#aK"/><use transform="matrix(0.05185185185185186,0,0,0.05185185185185186,72.1289351851852,0)" xlink:href="#aG"/><use transform="matrix(0.010416666666666668,0,0,0.010416666666666668,82.49930555555557,0)" xlink:href="#aL"/></g><path fill="#666" d="M195-6C206 82 75 100 31 46c-4-6-6-13-8-21l49-6c3 16 16 24 34 25 40 0 42-37 40-79-11 22-30 35-61 35-53 0-70-43-70-97 0-56 18-96 73-97 30 0 46 14 59 34l2-30h47zm-90-29c32 0 41-27 41-63 0-35-9-62-40-62-32 0-39 29-40 63 0 36 9 62 39 62" id="bn"/><path fill="#666" d="M135-194c87-1 58 113 63 194h-50c-7-57 23-157-34-157-59 0-34 97-39 157H25l-1-190h47c2 12-1 28 3 38 12-26 28-41 61-42" id="bo"/><path fill="#666" d="M135-194c53 0 70 44 70 98 0 56-19 98-73 100-31 1-45-17-59-34 3 33 2 69 2 105H25l-1-265h48c2 10 0 23 3 31 11-24 29-35 60-35zM114-30c33 0 39-31 40-66 0-38-9-64-40-64-56 0-55 130 0 130" id="bp"/><g id="w"><use transform="matrix(0.04938271604938272,0,0,0.04938271604938272,0,0)" xlink:href="#aN"/><use transform="matrix(0.04938271604938272,0,0,0.04938271604938272,9.876543209876544,0)" xlink:href="#bk"/><use transform="matrix(0.04938271604938272,0,0,0.04938271604938272,14.814814814814817,0)" xlink:href="#bn"/><use transform="matrix(0.04938271604938272,0,0,0.04938271604938272,25.629629629629633,0)" xlink:href="#bo"/><use transform="matrix(0.04938271604938272,0,0,0.04938271604938272,36.44444444444445,0)" xlink:href="#aM"/><use transform="matrix(0.04938271604938272,0,0,0.04938271604938272,47.25925925925927,0)" xlink:href="#bp"/></g><g id="x"><use transform="matrix(0.05,0,0,0.05,0,0)" xlink:href="#aW"/><use transform="matrix(0.05,0,0,0.05,12,0)" xlink:href="#bd"/><use transform="matrix(0.05,0,0,0.05,26,0)" xlink:href="#be"/><use transform="matrix(0.05,0,0,0.05,38,0)" xlink:href="#bf"/><use transform="matrix(0.05,0,0,0.05,48.95,0)" xlink:href="#bg"/><use transform="matrix(0.05,0,0,0.05,54.900000000000006,0)" xlink:href="#bc"/><use transform="matrix(0.05,0,0,0.05,64.9,0)" xlink:href="#aI"/><use transform="matrix(0.05,0,0,0.05,74.9,0)" xlink:href="#aR"/><use transform="matrix(0.05,0,0,0.05,84.9,0)" xlink:href="#bh"/><use transform="matrix(0.05,0,0,0.05,93.9,0)" xlink:href="#bi"/></g><path fill="#666" d="M25 0v-261h50V0H25" id="bq"/><path fill="#666" d="M110-194c64 0 96 36 96 99 0 64-35 99-97 99-61 0-95-36-95-99 0-62 34-99 96-99zm-1 164c35 0 45-28 45-65 0-40-10-65-43-65-34 0-45 26-45 65 0 36 10 65 43 65" id="br"/><g id="y"><use transform="matrix(0.04938271604938272,0,0,0.04938271604938272,0,0)" xlink:href="#bq"/><use transform="matrix(0.04938271604938272,0,0,0.04938271604938272,4.938271604938272,0)" xlink:href="#br"/><use transform="matrix(0.04938271604938272,0,0,0.04938271604938272,15.753086419753087,0)" xlink:href="#bn"/><use transform="matrix(0.04938271604938272,0,0,0.04938271604938272,26.567901234567902,0)" xlink:href="#bk"/><use transform="matrix(0.04938271604938272,0,0,0.04938271604938272,31.506172839506174,0)" xlink:href="#bo"/></g><path fill="#666" d="M143 4C61 4 22-44 18-125c-5-107 100-154 193-111 17 8 29 25 37 43l-32 9c-13-25-37-40-76-40-61 0-88 39-88 99 0 61 29 100 91 101 35 0 62-11 79-27v-45h-74v-28h105v86C228-13 192 4 143 4" id="bs"/><path fill="#666" d="M30 0v-248h187v28H63v79h144v27H63v87h162V0H30" id="bt"/><path fill="#666" d="M68-38c1 34 0 65-14 84H32c9-13 17-26 17-46H33v-38h35" id="bu"/><path fill="#666" d="M115-194c55 1 70 41 70 98S169 2 115 4C84 4 66-9 55-30l1 105H24l-1-265h31l2 30c10-21 28-34 59-34zm-8 174c40 0 45-34 45-75s-6-73-45-74c-42 0-51 32-51 76 0 43 10 73 51 73" id="bv"/><g id="z"><use transform="matrix(0.05,0,0,0.05,0,0)" xlink:href="#bs"/><use transform="matrix(0.05,0,0,0.05,14,0)" xlink:href="#bt"/><use transform="matrix(0.05,0,0,0.05,26,0)" xlink:href="#bf"/><use transform="matrix(0.05,0,0,0.05,36.95,0)" xlink:href="#bg"/><use transform="matrix(0.05,0,0,0.05,42.900000000000006,0)" xlink:href="#aJ"/><use transform="matrix(0.05,0,0,0.05,52.900000000000006,0)" xlink:href="#aH"/><use transform="matrix(0.05,0,0,0.05,61.900000000000006,0)" xlink:href="#aG"/><use transform="matrix(0.05,0,0,0.05,71.9,0)" xlink:href="#aF"/><use transform="matrix(0.05,0,0,0.05,77.85000000000001,0)" xlink:href="#aS"/><use transform="matrix(0.05,0,0,0.05,87.85000000000001,0)" xlink:href="#aT"/><use transform="matrix(0.05,0,0,0.05,97.85000000000001,0)" xlink:href="#aU"/><use transform="matrix(0.05,0,0,0.05,112.80000000000001,0)" xlink:href="#aG"/><use transform="matrix(0.05,0,0,0.05,122.80000000000001,0)" xlink:href="#bu"/><use transform="matrix(0.05,0,0,0.05,127.80000000000001,0)" xlink:href="#bv"/><use transform="matrix(0.05,0,0,0.05,137.8,0)" xlink:href="#aT"/><use transform="matrix(0.05,0,0,0.05,147.8,0)" xlink:href="#aH"/><use transform="matrix(0.05,0,0,0.05,156.8,0)" xlink:href="#aH"/><use transform="matrix(0.05,0,0,0.05,165.8,0)" xlink:href="#aX"/><use transform="matrix(0.05,0,0,0.05,178.75,0)" xlink:href="#aI"/><use transform="matrix(0.05,0,0,0.05,188.75,0)" xlink:href="#aF"/><use transform="matrix(0.05,0,0,0.05,194.7,0)" xlink:href="#aR"/><use transform="matrix(0.05,0,0,0.05,204.7,0)" xlink:href="#bi"/></g><path fill="#666" d="M115-3C79 11 28 4 28-45v-112H4v-33h27l15-45h31v45h36v33H77v99c-1 23 16 31 38 25v30" id="bw"/><g id="A"><use transform="matrix(0.04938271604938272,0,0,0.04938271604938272,0,0)" xlink:href="#bq"/><use transform="matrix(0.04938271604938272,0,0,0.04938271604938272,4.938271604938272,0)" xlink:href="#br"/><use transform="matrix(0.04938271604938272,0,0,0.04938271604938272,15.753086419753087,0)" xlink:href="#bn"/><use transform="matrix(0.04938271604938272,0,0,0.04938271604938272,26.567901234567902,0)" xlink:href="#br"/><use transform="matrix(0.04938271604938272,0,0,0.04938271604938272,37.382716049382715,0)" xlink:href="#aM"/><use transform="matrix(0.04938271604938272,0,0,0.04938271604938272,48.19753086419753,0)" xlink:href="#bw"/></g><g id="B"><use transform="matrix(0.05,0,0,0.05,0,0)" xlink:href="#bs"/><use transform="matrix(0.05,0,0,0.05,14,0)" xlink:href="#bt"/><use transform="matrix(0.05,0,0,0.05,26,0)" xlink:href="#bf"/><use transform="matrix(0.05,0,0,0.05,36.95,0)" xlink:href="#bg"/><use transform="matrix(0.05,0,0,0.05,42.900000000000006,0)" xlink:href="#bi"/></g><path fill="#666" d="M133-34C117-15 103 5 69 4 32 3 11-16 11-54c-1-60 55-63 116-61 1-26-3-47-28-47-18 1-26 9-28 27l-52-2c7-38 36-58 82-57s74 22 75 68l1 82c-1 14 12 18 25 15v27c-30 8-71 5-69-32zm-48 3c29 0 43-24 42-57-32 0-66-3-65 30 0 17 8 27 23 27" id="bx"/><path fill="#666" d="M220-157c-53 9-28 100-34 157h-49v-107c1-27-5-49-29-50C55-147 81-57 75 0H25l-1-190h47c2 12-1 28 3 38 10-53 101-56 108 0 13-22 24-43 59-42 82 1 51 116 57 194h-49v-107c-1-25-5-48-29-50" id="by"/><g id="C"><use transform="matrix(0.04938271604938272,0,0,0.04938271604938272,0,0)" xlink:href="#aM"/><use transform="matrix(0.04938271604938272,0,0,0.04938271604938272,10.814814814814815,0)" xlink:href="#aN"/><use transform="matrix(0.04938271604938272,0,0,0.04938271604938272,20.69135802469136,0)" xlink:href="#aO"/><use transform="matrix(0.04938271604938272,0,0,0.04938271604938272,30.567901234567906,0)" xlink:href="#aP"/><use transform="matrix(0.04938271604938272,0,0,0.04938271604938272,37.48148148148149,0)" xlink:href="#bo"/><use transform="matrix(0.04938271604938272,0,0,0.04938271604938272,48.296296296296305,0)" xlink:href="#bx"/><use transform="matrix(0.04938271604938272,0,0,0.04938271604938272,58.17283950617284,0)" xlink:href="#by"/><use transform="matrix(0.04938271604938272,0,0,0.04938271604938272,73.97530864197532,0)" xlink:href="#aO"/></g><g id="D"><use transform="matrix(0.05,0,0,0.05,0,0)" xlink:href="#bs"/><use transform="matrix(0.05,0,0,0.05,14,0)" xlink:href="#bt"/><use transform="matrix(0.05,0,0,0.05,26,0)" xlink:href="#bf"/><use transform="matrix(0.05,0,0,0.05,36.95,0)" xlink:href="#bg"/><use transform="matrix(0.05,0,0,0.05,42.900000000000006,0)" xlink:href="#aJ"/><use transform="matrix(0.05,0,0,0.05,52.900000000000006,0)" xlink:href="#aH"/><use transform="matrix(0.05,0,0,0.05,61.900000000000006,0)" xlink:href="#aG"/><use transform="matrix(0.05,0,0,0.05,71.9,0)" xlink:href="#aF"/><use transform="matrix(0.05,0,0,0.05,77.85000000000001,0)" xlink:href="#aS"/><use transform="matrix(0.05,0,0,0.05,87.85000000000001,0)" xlink:href="#aT"/><use transform="matrix(0.05,0,0,0.05,97.85000000000001,0)" xlink:href="#aU"/><use transform="matrix(0.05,0,0,0.05,112.80000000000001,0)" xlink:href="#aG"/><use transform="matrix(0.05,0,0,0.05,122.80000000000001,0)" xlink:href="#bi"/></g><path fill="#666" d="M232-93c-1 65-40 97-104 97C67 4 28-28 28-90v-158h33c8 89-33 224 67 224 102 0 64-133 71-224h33v155" id="bz"/><g id="E"><use transform="matrix(0.05,0,0,0.05,0,0)" xlink:href="#aW"/><use transform="matrix(0.05,0,0,0.05,12,0)" xlink:href="#bz"/><use transform="matrix(0.05,0,0,0.05,24.950000000000003,0)" xlink:href="#bf"/><use transform="matrix(0.05,0,0,0.05,35.900000000000006,0)" xlink:href="#bg"/><use transform="matrix(0.05,0,0,0.05,41.85000000000001,0)" xlink:href="#aJ"/><use transform="matrix(0.05,0,0,0.05,51.85,0)" xlink:href="#aH"/><use transform="matrix(0.05,0,0,0.05,60.85,0)" xlink:href="#aG"/><use transform="matrix(0.05,0,0,0.05,70.85000000000001,0)" xlink:href="#aF"/><use transform="matrix(0.05,0,0,0.05,76.80000000000001,0)" xlink:href="#aS"/><use transform="matrix(0.05,0,0,0.05,86.80000000000001,0)" xlink:href="#aT"/><use transform="matrix(0.05,0,0,0.05,96.80000000000001,0)" xlink:href="#aU"/><use transform="matrix(0.05,0,0,0.05,111.75,0)" xlink:href="#aG"/><use transform="matrix(0.05,0,0,0.05,121.75,0)" xlink:href="#bu"/></g><g id="F"><use transform="matrix(0.05,0,0,0.05,0,0)" xlink:href="#bc"/><use transform="matrix(0.05,0,0,0.05,10,0)" xlink:href="#aI"/><use transform="matrix(0.05,0,0,0.05,20,0)" xlink:href="#aR"/><use transform="matrix(0.05,0,0,0.05,30,0)" xlink:href="#bh"/><use transform="matrix(0.05,0,0,0.05,39,0)" xlink:href="#bi"/></g><path fill="#666" d="M30-248c118-7 216 8 213 122C240-48 200 0 122 0H30v-248zM63-27c89 8 146-16 146-99s-60-101-146-95v194" id="bA"/><path fill="#666" d="M30 0v-248h33v221h125V0H30" id="bB"/><g id="G"><use transform="matrix(0.05,0,0,0.05,0,0)" xlink:href="#bA"/><use transform="matrix(0.05,0,0,0.05,12.950000000000001,0)" xlink:href="#bt"/><use transform="matrix(0.05,0,0,0.05,24.950000000000003,0)" xlink:href="#bB"/><use transform="matrix(0.05,0,0,0.05,34.95,0)" xlink:href="#bt"/><use transform="matrix(0.05,0,0,0.05,46.95,0)" xlink:href="#bf"/><use transform="matrix(0.05,0,0,0.05,57.900000000000006,0)" xlink:href="#bt"/><use transform="matrix(0.05,0,0,0.05,69.9,0)" xlink:href="#bg"/><use transform="matrix(0.05,0,0,0.05,75.85000000000001,0)" xlink:href="#aJ"/><use transform="matrix(0.05,0,0,0.05,85.85000000000001,0)" xlink:href="#aH"/><use transform="matrix(0.05,0,0,0.05,94.85000000000001,0)" xlink:href="#aG"/><use transform="matrix(0.05,0,0,0.05,104.85000000000001,0)" xlink:href="#aF"/><use transform="matrix(0.05,0,0,0.05,110.80000000000001,0)" xlink:href="#aS"/><use transform="matrix(0.05,0,0,0.05,120.80000000000001,0)" xlink:href="#aT"/><use transform="matrix(0.05,0,0,0.05,130.8,0)" xlink:href="#aU"/><use transform="matrix(0.05,0,0,0.05,145.75,0)" xlink:href="#aG"/><use transform="matrix(0.05,0,0,0.05,155.75,0)" xlink:href="#bi"/></g><path fill="#666" d="M135-194c52 0 70 43 70 98 0 56-19 99-73 100-30 1-46-15-58-35L72 0H24l1-261h50v104c11-23 29-37 60-37zM114-30c31 0 40-27 40-66 0-37-7-63-39-63s-41 28-41 65c0 36 8 64 40 64" id="bC"/><g id="H"><use transform="matrix(0.04938271604938272,0,0,0.04938271604938272,0,0)" xlink:href="#aN"/><use transform="matrix(0.04938271604938272,0,0,0.04938271604938272,9.876543209876544,0)" xlink:href="#aM"/><use transform="matrix(0.04938271604938272,0,0,0.04938271604938272,20.69135802469136,0)" xlink:href="#bC"/><use transform="matrix(0.04938271604938272,0,0,0.04938271604938272,31.506172839506174,0)" xlink:href="#by"/><use transform="matrix(0.04938271604938272,0,0,0.04938271604938272,47.308641975308646,0)" xlink:href="#bk"/><use transform="matrix(0.04938271604938272,0,0,0.04938271604938272,52.24691358024692,0)" xlink:href="#bw"/></g><path fill="#666" d="M205 0l-28-72H64L36 0H1l101-248h38L239 0h-34zm-38-99l-47-123c-12 45-31 82-46 123h93" id="bD"/><path fill="#666" d="M33 0v-248h34V0H33" id="bE"/><g id="I"><use transform="matrix(0.008680555555555556,0,0,0.008680555555555556,0,0)" xlink:href="#aE"/><use transform="matrix(0.04938271604938272,0,0,0.04938271604938272,8.34201388888889,0)" xlink:href="#bD"/><use transform="matrix(0.04938271604938272,0,0,0.04938271604938272,20.19386574074074,0)" xlink:href="#aW"/><use transform="matrix(0.04938271604938272,0,0,0.04938271604938272,32.045717592592595,0)" xlink:href="#bE"/><use transform="matrix(0.008680555555555556,0,0,0.008680555555555556,36.98398919753087,0)" xlink:href="#aL"/></g><path fill="#666" d="M24 0v-54h51V0H24" id="bF"/><path fill="#666" d="M121-226c-27-7-43 5-38 36h38v33H83V0H34v-157H6v-33h28c-9-59 32-81 87-68v32" id="bG"/><path fill="#666" d="M190-63c-7 42-38 67-86 67-59 0-84-38-90-98-12-110 154-137 174-36l-49 2c-2-19-15-32-35-32-30 0-35 28-38 64-6 74 65 87 74 30" id="bH"/><g id="J"><use transform="matrix(0.04938271604938272,0,0,0.04938271604938272,0,0)" xlink:href="#bx"/><use transform="matrix(0.04938271604938272,0,0,0.04938271604938272,9.876543209876544,0)" xlink:href="#bp"/><use transform="matrix(0.04938271604938272,0,0,0.04938271604938272,20.69135802469136,0)" xlink:href="#bk"/><use transform="matrix(0.04938271604938272,0,0,0.04938271604938272,25.629629629629633,0)" xlink:href="#bF"/><use transform="matrix(0.04938271604938272,0,0,0.04938271604938272,30.567901234567906,0)" xlink:href="#aN"/><use transform="matrix(0.04938271604938272,0,0,0.04938271604938272,40.44444444444445,0)" xlink:href="#bx"/><use transform="matrix(0.04938271604938272,0,0,0.04938271604938272,50.320987654320994,0)" xlink:href="#bG"/><use transform="matrix(0.04938271604938272,0,0,0.04938271604938272,56.19753086419754,0)" xlink:href="#aO"/><use transform="matrix(0.04938271604938272,0,0,0.04938271604938272,66.07407407407408,0)" xlink:href="#aN"/><use transform="matrix(0.04938271604938272,0,0,0.04938271604938272,75.95061728395062,0)" xlink:href="#bw"/><use transform="matrix(0.04938271604938272,0,0,0.04938271604938272,81.82716049382717,0)" xlink:href="#aP"/><use transform="matrix(0.04938271604938272,0,0,0.04938271604938272,88.74074074074075,0)" xlink:href="#aO"/><use transform="matrix(0.04938271604938272,0,0,0.04938271604938272,98.61728395061729,0)" xlink:href="#aO"/><use transform="matrix(0.04938271604938272,0,0,0.04938271604938272,108.49382716049384,0)" xlink:href="#bw"/><use transform="matrix(0.04938271604938272,0,0,0.04938271604938272,114.37037037037038,0)" xlink:href="#bF"/><use transform="matrix(0.04938271604938272,0,0,0.04938271604938272,119.30864197530865,0)" xlink:href="#bH"/><use transform="matrix(0.04938271604938272,0,0,0.04938271604938272,129.18518518518522,0)" xlink:href="#br"/><use transform="matrix(0.04938271604938272,0,0,0.04938271604938272,140.00000000000003,0)" xlink:href="#by"/></g><g id="K"><use transform="matrix(0.05,0,0,0.05,0,0)" xlink:href="#aK"/><use transform="matrix(0.05,0,0,0.05,9,0)" xlink:href="#aI"/><use transform="matrix(0.05,0,0,0.05,19,0)" xlink:href="#aR"/><use transform="matrix(0.05,0,0,0.05,29,0)" xlink:href="#aG"/></g><g id="L"><use transform="matrix(0.05,0,0,0.05,0,0)" xlink:href="#aZ"/><use transform="matrix(0.05,0,0,0.05,5,0)" xlink:href="#bh"/><use transform="matrix(0.05,0,0,0.05,14,0)" xlink:href="#bv"/><use transform="matrix(0.05,0,0,0.05,24,0)" xlink:href="#aG"/></g><path fill="#666" d="M177-190C167-65 218 103 67 71c-23-6-38-20-44-43l32-5c15 47 100 32 89-28v-30C133-14 115 1 83 1 29 1 15-40 15-95c0-56 16-97 71-98 29-1 48 16 59 35 1-10 0-23 2-32h30zM94-22c36 0 50-32 50-73 0-42-14-75-50-75-39 0-46 34-46 75s6 73 46 73" id="bI"/><g id="M"><use transform="matrix(0.05,0,0,0.05,0,0)" xlink:href="#aU"/><use transform="matrix(0.05,0,0,0.05,14.950000000000001,0)" xlink:href="#aG"/><use transform="matrix(0.05,0,0,0.05,24.950000000000003,0)" xlink:href="#aH"/><use transform="matrix(0.05,0,0,0.05,33.95,0)" xlink:href="#aH"/><use transform="matrix(0.05,0,0,0.05,42.95,0)" xlink:href="#aT"/><use transform="matrix(0.05,0,0,0.05,52.95,0)" xlink:href="#bI"/><use transform="matrix(0.05,0,0,0.05,62.95,0)" xlink:href="#aG"/></g><path fill="#666" d="M128 0H69L1-190h53L99-40l48-150h52" id="bJ"/><g id="N"><use transform="matrix(0.04938271604938272,0,0,0.04938271604938272,0,0)" xlink:href="#bJ"/><use transform="matrix(0.04938271604938272,0,0,0.04938271604938272,9.876543209876544,0)" xlink:href="#bk"/><use transform="matrix(0.04938271604938272,0,0,0.04938271604938272,14.814814814814817,0)" xlink:href="#br"/><use transform="matrix(0.04938271604938272,0,0,0.04938271604938272,25.629629629629633,0)" xlink:href="#bq"/><use transform="matrix(0.04938271604938272,0,0,0.04938271604938272,30.567901234567906,0)" xlink:href="#bx"/><use transform="matrix(0.04938271604938272,0,0,0.04938271604938272,40.44444444444445,0)" xlink:href="#bw"/><use transform="matrix(0.04938271604938272,0,0,0.04938271604938272,46.320987654320994,0)" xlink:href="#bk"/><use transform="matrix(0.04938271604938272,0,0,0.04938271604938272,51.25925925925927,0)" xlink:href="#br"/><use transform="matrix(0.04938271604938272,0,0,0.04938271604938272,62.074074074074076,0)" xlink:href="#bo"/></g><g id="O"><use transform="matrix(0.04938271604938272,0,0,0.04938271604938272,0,0)" xlink:href="#aQ"/><use transform="matrix(0.04938271604938272,0,0,0.04938271604938272,3.901234567901235,0)" xlink:href="#aR"/></g><g id="P"><use transform="matrix(0.04938271604938272,0,0,0.04938271604938272,0,0)" xlink:href="#aJ"/><use transform="matrix(0.04938271604938272,0,0,0.04938271604938272,9.876543209876544,0)" xlink:href="#aH"/><use transform="matrix(0.04938271604938272,0,0,0.04938271604938272,18.765432098765434,0)" xlink:href="#aG"/><use transform="matrix(0.04938271604938272,0,0,0.04938271604938272,28.641975308641978,0)" xlink:href="#aF"/><use transform="matrix(0.04938271604938272,0,0,0.04938271604938272,34.51851851851852,0)" xlink:href="#aS"/><use transform="matrix(0.04938271604938272,0,0,0.04938271604938272,44.39506172839506,0)" xlink:href="#aT"/><use transform="matrix(0.04938271604938272,0,0,0.04938271604938272,54.27160493827161,0)" xlink:href="#aU"/><use transform="matrix(0.04938271604938272,0,0,0.04938271604938272,69.03703703703704,0)" xlink:href="#aG"/></g><g id="Q"><use transform="matrix(0.04938271604938272,0,0,0.04938271604938272,0,0)" xlink:href="#aQ"/><use transform="matrix(0.04938271604938272,0,0,0.04938271604938272,3.901234567901235,0)" xlink:href="#aU"/><use transform="matrix(0.04938271604938272,0,0,0.04938271604938272,18.666666666666668,0)" xlink:href="#bI"/><use transform="matrix(0.04938271604938272,0,0,0.04938271604938272,28.543209876543212,0)" xlink:href="#aH"/></g><g id="R"><use transform="matrix(0.04938271604938272,0,0,0.04938271604938272,0,0)" xlink:href="#bv"/><use transform="matrix(0.04938271604938272,0,0,0.04938271604938272,9.876543209876544,0)" xlink:href="#bb"/><use transform="matrix(0.04938271604938272,0,0,0.04938271604938272,13.777777777777779,0)" xlink:href="#aT"/><use transform="matrix(0.04938271604938272,0,0,0.04938271604938272,23.654320987654323,0)" xlink:href="#aZ"/><use transform="matrix(0.04938271604938272,0,0,0.04938271604938272,28.592592592592595,0)" xlink:href="#aG"/><use transform="matrix(0.04938271604938272,0,0,0.04938271604938272,38.46913580246914,0)" xlink:href="#ba"/><use transform="matrix(0.04938271604938272,0,0,0.04938271604938272,51.25925925925927,0)" xlink:href="#aJ"/><use transform="matrix(0.04938271604938272,0,0,0.04938271604938272,61.13580246913581,0)" xlink:href="#aU"/><use transform="matrix(0.04938271604938272,0,0,0.04938271604938272,75.90123456790124,0)" xlink:href="#bc"/><use transform="matrix(0.04938271604938272,0,0,0.04938271604938272,85.77777777777779,0)" xlink:href="#aG"/><use transform="matrix(0.04938271604938272,0,0,0.04938271604938272,95.65432098765433,0)" xlink:href="#aF"/></g><g id="S"><use transform="matrix(0.04938271604938272,0,0,0.04938271604938272,0,0)" xlink:href="#aZ"/><use transform="matrix(0.04938271604938272,0,0,0.04938271604938272,4.938271604938272,0)" xlink:href="#bh"/><use transform="matrix(0.04938271604938272,0,0,0.04938271604938272,13.827160493827162,0)" xlink:href="#bv"/><use transform="matrix(0.04938271604938272,0,0,0.04938271604938272,23.703703703703706,0)" xlink:href="#aG"/></g><g id="T"><use transform="matrix(0.04938271604938272,0,0,0.04938271604938272,0,0)" xlink:href="#aK"/><use transform="matrix(0.04938271604938272,0,0,0.04938271604938272,8.88888888888889,0)" xlink:href="#aI"/><use transform="matrix(0.04938271604938272,0,0,0.04938271604938272,18.765432098765434,0)" xlink:href="#aU"/><use transform="matrix(0.04938271604938272,0,0,0.04938271604938272,33.53086419753087,0)" xlink:href="#aU"/><use transform="matrix(0.04938271604938272,0,0,0.04938271604938272,48.296296296296305,0)" xlink:href="#aG"/><use transform="matrix(0.04938271604938272,0,0,0.04938271604938272,58.17283950617284,0)" xlink:href="#aS"/><use transform="matrix(0.04938271604938272,0,0,0.04938271604938272,68.0493827160494,0)" xlink:href="#aZ"/></g><g id="U"><use transform="matrix(0.04938271604938272,0,0,0.04938271604938272,0,0)" xlink:href="#aZ"/><use transform="matrix(0.04938271604938272,0,0,0.04938271604938272,4.938271604938272,0)" xlink:href="#aQ"/><use transform="matrix(0.04938271604938272,0,0,0.04938271604938272,8.839506172839506,0)" xlink:href="#aU"/><use transform="matrix(0.04938271604938272,0,0,0.04938271604938272,23.60493827160494,0)" xlink:href="#aG"/><use transform="matrix(0.04938271604938272,0,0,0.04938271604938272,33.48148148148148,0)" xlink:href="#bd"/><use transform="matrix(0.04938271604938272,0,0,0.04938271604938272,47.308641975308646,0)" xlink:href="#aK"/><use transform="matrix(0.04938271604938272,0,0,0.04938271604938272,56.19753086419754,0)" xlink:href="#aK"/><use transform="matrix(0.04938271604938272,0,0,0.04938271604938272,65.08641975308642,0)" xlink:href="#aJ"/><use transform="matrix(0.04938271604938272,0,0,0.04938271604938272,74.96296296296296,0)" xlink:href="#aF"/><use transform="matrix(0.04938271604938272,0,0,0.04938271604938272,80.8395061728395,0)" xlink:href="#aF"/><use transform="matrix(0.04938271604938272,0,0,0.04938271604938272,86.71604938271605,0)" xlink:href="#aG"/><use transform="matrix(0.04938271604938272,0,0,0.04938271604938272,96.5925925925926,0)" xlink:href="#aS"/><use transform="matrix(0.04938271604938272,0,0,0.04938271604938272,106.46913580246914,0)" xlink:href="#aK"/><use transform="matrix(0.04938271604938272,0,0,0.04938271604938272,115.35802469135804,0)" xlink:href="#aG"/></g><g id="V"><use transform="matrix(0.04938271604938272,0,0,0.04938271604938272,0,0)" xlink:href="#bb"/><use transform="matrix(0.04938271604938272,0,0,0.04938271604938272,3.901234567901235,0)" xlink:href="#aI"/><use transform="matrix(0.04938271604938272,0,0,0.04938271604938272,13.777777777777779,0)" xlink:href="#aK"/><use transform="matrix(0.04938271604938272,0,0,0.04938271604938272,22.666666666666668,0)" xlink:href="#aT"/><use transform="matrix(0.04938271604938272,0,0,0.04938271604938272,32.543209876543216,0)" xlink:href="#aZ"/><use transform="matrix(0.04938271604938272,0,0,0.04938271604938272,37.48148148148149,0)" xlink:href="#aQ"/><use transform="matrix(0.04938271604938272,0,0,0.04938271604938272,41.38271604938272,0)" xlink:href="#aI"/><use transform="matrix(0.04938271604938272,0,0,0.04938271604938272,51.25925925925927,0)" xlink:href="#aS"/></g><g id="W"><use transform="matrix(0.04938271604938272,0,0,0.04938271604938272,0,0)" xlink:href="#aW"/><use transform="matrix(0.04938271604938272,0,0,0.04938271604938272,11.851851851851853,0)" xlink:href="#bd"/><use transform="matrix(0.04938271604938272,0,0,0.04938271604938272,25.679012345679016,0)" xlink:href="#be"/><use transform="matrix(0.04938271604938272,0,0,0.04938271604938272,37.53086419753087,0)" xlink:href="#bf"/><use transform="matrix(0.04938271604938272,0,0,0.04938271604938272,48.345679012345684,0)" xlink:href="#bg"/><use transform="matrix(0.04938271604938272,0,0,0.04938271604938272,54.22222222222223,0)" xlink:href="#bc"/><use transform="matrix(0.04938271604938272,0,0,0.04938271604938272,64.09876543209877,0)" xlink:href="#aI"/><use transform="matrix(0.04938271604938272,0,0,0.04938271604938272,73.97530864197532,0)" xlink:href="#aR"/><use transform="matrix(0.04938271604938272,0,0,0.04938271604938272,83.85185185185186,0)" xlink:href="#bh"/><use transform="matrix(0.04938271604938272,0,0,0.04938271604938272,92.74074074074075,0)" xlink:href="#bi"/></g><path fill="#666" d="M88-194c31-1 46 15 58 34l-1-101h50l1 261h-48c-2-10 0-23-3-31C134-8 116 4 84 4 32 4 16-41 15-95c0-56 19-97 73-99zm17 164c33 0 40-30 41-66 1-37-9-64-41-64s-38 30-39 65c0 43 13 65 39 65" id="bK"/><g id="X"><use transform="matrix(0.04938271604938272,0,0,0.04938271604938272,0,0)" xlink:href="#aO"/><use transform="matrix(0.04938271604938272,0,0,0.04938271604938272,9.876543209876544,0)" xlink:href="#bK"/><use transform="matrix(0.04938271604938272,0,0,0.04938271604938272,20.69135802469136,0)" xlink:href="#bk"/><use transform="matrix(0.04938271604938272,0,0,0.04938271604938272,25.629629629629633,0)" xlink:href="#bw"/></g><g id="Y"><use transform="matrix(0.05,0,0,0.05,0,0)" xlink:href="#aW"/><use transform="matrix(0.05,0,0,0.05,12,0)" xlink:href="#bz"/><use transform="matrix(0.05,0,0,0.05,24.950000000000003,0)" xlink:href="#bf"/><use transform="matrix(0.05,0,0,0.05,35.900000000000006,0)" xlink:href="#bg"/><use transform="matrix(0.05,0,0,0.05,41.85000000000001,0)" xlink:href="#aQ"/><use transform="matrix(0.05,0,0,0.05,45.80000000000001,0)" xlink:href="#aR"/><use transform="matrix(0.05,0,0,0.05,55.80000000000001,0)" xlink:href="#bu"/><use transform="matrix(0.05,0,0,0.05,60.80000000000001,0)" xlink:href="#bc"/><use transform="matrix(0.05,0,0,0.05,70.80000000000001,0)" xlink:href="#aI"/><use transform="matrix(0.05,0,0,0.05,80.80000000000001,0)" xlink:href="#aR"/><use transform="matrix(0.05,0,0,0.05,90.80000000000001,0)" xlink:href="#bh"/><use transform="matrix(0.05,0,0,0.05,99.80000000000001,0)" xlink:href="#bi"/></g><g id="Z"><use transform="matrix(0.04938271604938272,0,0,0.04938271604938272,0,0)" xlink:href="#bK"/><use transform="matrix(0.04938271604938272,0,0,0.04938271604938272,10.814814814814815,0)" xlink:href="#aO"/><use transform="matrix(0.04938271604938272,0,0,0.04938271604938272,20.69135802469136,0)" xlink:href="#bq"/><use transform="matrix(0.04938271604938272,0,0,0.04938271604938272,25.629629629629633,0)" xlink:href="#aO"/><use transform="matrix(0.04938271604938272,0,0,0.04938271604938272,35.50617283950618,0)" xlink:href="#bw"/><use transform="matrix(0.04938271604938272,0,0,0.04938271604938272,41.38271604938272,0)" xlink:href="#aO"/></g><g id="aa"><use transform="matrix(0.05,0,0,0.05,0,0)" xlink:href="#bA"/><use transform="matrix(0.05,0,0,0.05,12.950000000000001,0)" xlink:href="#bt"/><use transform="matrix(0.05,0,0,0.05,24.950000000000003,0)" xlink:href="#bB"/><use transform="matrix(0.05,0,0,0.05,34.95,0)" xlink:href="#bt"/><use transform="matrix(0.05,0,0,0.05,46.95,0)" xlink:href="#bf"/><use transform="matrix(0.05,0,0,0.05,57.900000000000006,0)" xlink:href="#bt"/><use transform="matrix(0.05,0,0,0.05,69.9,0)" xlink:href="#bg"/><use transform="matrix(0.05,0,0,0.05,75.85000000000001,0)" xlink:href="#aQ"/><use transform="matrix(0.05,0,0,0.05,79.80000000000001,0)" xlink:href="#aR"/><use transform="matrix(0.05,0,0,0.05,89.80000000000001,0)" xlink:href="#bi"/></g><path fill="#666" d="M169-182c-1-43-94-46-97-3 18 66 151 10 154 114 3 95-165 93-204 36-6-8-10-19-12-30l50-8c3 46 112 56 116 5-17-69-150-10-154-114-4-87 153-88 188-35 5 8 8 18 10 28" id="bL"/><path fill="#666" d="M123 10C108 53 80 86 19 72V37c35 8 53-11 59-39L3-190h52l48 148c12-52 28-100 44-148h51" id="bM"/><g id="ab"><use transform="matrix(0.04938271604938272,0,0,0.04938271604938272,0,0)" xlink:href="#bj"/><use transform="matrix(0.04938271604938272,0,0,0.04938271604938272,11.506172839506174,0)" xlink:href="#bk"/><use transform="matrix(0.04938271604938272,0,0,0.04938271604938272,16.444444444444446,0)" xlink:href="#aO"/><use transform="matrix(0.04938271604938272,0,0,0.04938271604938272,26.32098765432099,0)" xlink:href="#bl"/><use transform="matrix(0.04938271604938272,0,0,0.04938271604938272,40.14814814814815,0)" xlink:href="#bL"/><use transform="matrix(0.04938271604938272,0,0,0.04938271604938272,52.00000000000001,0)" xlink:href="#bx"/><use transform="matrix(0.04938271604938272,0,0,0.04938271604938272,61.87654320987655,0)" xlink:href="#bG"/><use transform="matrix(0.04938271604938272,0,0,0.04938271604938272,67.75308641975309,0)" xlink:href="#aO"/><use transform="matrix(0.04938271604938272,0,0,0.04938271604938272,77.62962962962963,0)" xlink:href="#bw"/><use transform="matrix(0.04938271604938272,0,0,0.04938271604938272,83.50617283950618,0)" xlink:href="#bM"/></g><g id="ac"><use transform="matrix(0.05,0,0,0.05,0,0)" xlink:href="#bb"/><use transform="matrix(0.05,0,0,0.05,3.95,0)" xlink:href="#aI"/><use transform="matrix(0.05,0,0,0.05,13.949999999999998,0)" xlink:href="#aK"/><use transform="matrix(0.05,0,0,0.05,22.95,0)" xlink:href="#aT"/><use transform="matrix(0.05,0,0,0.05,32.95,0)" xlink:href="#aZ"/><use transform="matrix(0.05,0,0,0.05,37.95,0)" xlink:href="#aQ"/><use transform="matrix(0.05,0,0,0.05,41.900000000000006,0)" xlink:href="#aI"/><use transform="matrix(0.05,0,0,0.05,51.900000000000006,0)" xlink:href="#aS"/></g><path fill="#666" d="M137 0h-34L2-248h35l83 218 83-218h36" id="bN"/><g id="ad"><use transform="matrix(0.05,0,0,0.05,0,0)" xlink:href="#aT"/><use transform="matrix(0.05,0,0,0.05,10,0)" xlink:href="#aK"/><use transform="matrix(0.05,0,0,0.05,19,0)" xlink:href="#aK"/><use transform="matrix(0.05,0,0,0.05,28,0)" xlink:href="#aQ"/><use transform="matrix(0.05,0,0,0.05,31.950000000000003,0)" xlink:href="#bd"/><use transform="matrix(0.05,0,0,0.05,45.95,0)" xlink:href="#aF"/><use transform="matrix(0.05,0,0,0.05,51.900000000000006,0)" xlink:href="#bN"/><use transform="matrix(0.05,0,0,0.05,63.550000000000004,0)" xlink:href="#aQ"/><use transform="matrix(0.05,0,0,0.05,67.5,0)" xlink:href="#aI"/><use transform="matrix(0.05,0,0,0.05,77.5,0)" xlink:href="#bb"/></g><path fill="#666" d="M186 0v-106H76V0H24v-248h52v99h110v-99h50V0h-50" id="bO"/><g id="ae"><use transform="matrix(0.04938271604938272,0,0,0.04938271604938272,0,0)" xlink:href="#bj"/><use transform="matrix(0.04938271604938272,0,0,0.04938271604938272,11.506172839506174,0)" xlink:href="#bk"/><use transform="matrix(0.04938271604938272,0,0,0.04938271604938272,16.444444444444446,0)" xlink:href="#aO"/><use transform="matrix(0.04938271604938272,0,0,0.04938271604938272,26.32098765432099,0)" xlink:href="#bl"/><use transform="matrix(0.04938271604938272,0,0,0.04938271604938272,40.14814814814815,0)" xlink:href="#bO"/><use transform="matrix(0.04938271604938272,0,0,0.04938271604938272,52.93827160493828,0)" xlink:href="#bk"/><use transform="matrix(0.04938271604938272,0,0,0.04938271604938272,57.87654320987655,0)" xlink:href="#aN"/><use transform="matrix(0.04938271604938272,0,0,0.04938271604938272,67.75308641975309,0)" xlink:href="#bw"/><use transform="matrix(0.04938271604938272,0,0,0.04938271604938272,73.62962962962963,0)" xlink:href="#br"/><use transform="matrix(0.04938271604938272,0,0,0.04938271604938272,84.44444444444444,0)" xlink:href="#aP"/><use transform="matrix(0.04938271604938272,0,0,0.04938271604938272,91.35802469135803,0)" xlink:href="#bM"/></g><g id="af"><use transform="matrix(0.05,0,0,0.05,0,0)" xlink:href="#aJ"/><use transform="matrix(0.05,0,0,0.05,10,0)" xlink:href="#aH"/><use transform="matrix(0.05,0,0,0.05,19,0)" xlink:href="#aG"/><use transform="matrix(0.05,0,0,0.05,29,0)" xlink:href="#aF"/><use transform="matrix(0.05,0,0,0.05,34.95,0)" xlink:href="#aS"/><use transform="matrix(0.05,0,0,0.05,44.95,0)" xlink:href="#aT"/><use transform="matrix(0.05,0,0,0.05,54.95,0)" xlink:href="#aU"/><use transform="matrix(0.05,0,0,0.05,69.9,0)" xlink:href="#aG"/></g><g id="ag"><use transform="matrix(0.05,0,0,0.05,0,0)" xlink:href="#bv"/><use transform="matrix(0.05,0,0,0.05,10,0)" xlink:href="#aT"/><use transform="matrix(0.05,0,0,0.05,20,0)" xlink:href="#bI"/><use transform="matrix(0.05,0,0,0.05,30,0)" xlink:href="#aG"/></g><g id="ah"><use transform="matrix(0.05,0,0,0.05,0,0)" xlink:href="#bA"/><use transform="matrix(0.05,0,0,0.05,12.950000000000001,0)" xlink:href="#bt"/><use transform="matrix(0.05,0,0,0.05,24.950000000000003,0)" xlink:href="#bB"/><use transform="matrix(0.05,0,0,0.05,34.95,0)" xlink:href="#bt"/><use transform="matrix(0.05,0,0,0.05,46.95,0)" xlink:href="#bf"/><use transform="matrix(0.05,0,0,0.05,57.900000000000006,0)" xlink:href="#bt"/><use transform="matrix(0.05,0,0,0.05,69.9,0)" xlink:href="#bg"/><use transform="matrix(0.05,0,0,0.05,75.85000000000001,0)" xlink:href="#bc"/><use transform="matrix(0.05,0,0,0.05,85.85000000000001,0)" xlink:href="#aI"/><use transform="matrix(0.05,0,0,0.05,95.85000000000001,0)" xlink:href="#aR"/><use transform="matrix(0.05,0,0,0.05,105.85000000000001,0)" xlink:href="#bh"/><use transform="matrix(0.05,0,0,0.05,114.85000000000001,0)" xlink:href="#bi"/></g><path fill="#666" d="M114-157C55-157 80-60 75 0H25v-261h50l-1 109c12-26 28-41 61-42 86-1 58 113 63 194h-50c-7-57 23-157-34-157" id="bP"/><path fill="#666" d="M240-174c0 40-23 61-54 70L253 0h-59l-57-94H76V0H24v-248c93 4 217-23 216 74zM76-134c48-2 112 12 112-38 0-48-66-32-112-35v73" id="bQ"/><g id="ai"><use transform="matrix(0.04938271604938272,0,0,0.04938271604938272,0,0)" xlink:href="#bx"/><use transform="matrix(0.04938271604938272,0,0,0.04938271604938272,9.876543209876544,0)" xlink:href="#aM"/><use transform="matrix(0.04938271604938272,0,0,0.04938271604938272,20.69135802469136,0)" xlink:href="#bw"/><use transform="matrix(0.04938271604938272,0,0,0.04938271604938272,26.567901234567902,0)" xlink:href="#bP"/><use transform="matrix(0.04938271604938272,0,0,0.04938271604938272,37.38271604938272,0)" xlink:href="#br"/><use transform="matrix(0.04938271604938272,0,0,0.04938271604938272,48.19753086419754,0)" xlink:href="#aP"/><use transform="matrix(0.04938271604938272,0,0,0.04938271604938272,55.111111111111114,0)" xlink:href="#bk"/><use transform="matrix(0.04938271604938272,0,0,0.04938271604938272,60.0493827160494,0)" xlink:href="#bw"/><use transform="matrix(0.04938271604938272,0,0,0.04938271604938272,65.92592592592594,0)" xlink:href="#bM"/><use transform="matrix(0.04938271604938272,0,0,0.04938271604938272,75.80246913580248,0)" xlink:href="#bQ"/><use transform="matrix(0.04938271604938272,0,0,0.04938271604938272,88.59259259259261,0)" xlink:href="#aO"/><use transform="matrix(0.04938271604938272,0,0,0.04938271604938272,98.46913580246915,0)" xlink:href="#bp"/><use transform="matrix(0.04938271604938272,0,0,0.04938271604938272,109.28395061728396,0)" xlink:href="#br"/><use transform="matrix(0.04938271604938272,0,0,0.04938271604938272,120.09876543209877,0)" xlink:href="#aP"/><use transform="matrix(0.04938271604938272,0,0,0.04938271604938272,127.01234567901236,0)" xlink:href="#bw"/></g><g id="aj"><use transform="matrix(0.05,0,0,0.05,0,0)" xlink:href="#aZ"/><use transform="matrix(0.05,0,0,0.05,5,0)" xlink:href="#bh"/><use transform="matrix(0.05,0,0,0.05,14,0)" xlink:href="#bv"/><use transform="matrix(0.05,0,0,0.05,24,0)" xlink:href="#aG"/></g><g id="ak"><use transform="matrix(0.05,0,0,0.05,0,0)" xlink:href="#aI"/><use transform="matrix(0.05,0,0,0.05,10,0)" xlink:href="#aY"/><use transform="matrix(0.05,0,0,0.05,14.65,0)" xlink:href="#aY"/><use transform="matrix(0.05,0,0,0.05,19.65,0)" xlink:href="#aQ"/><use transform="matrix(0.05,0,0,0.05,23.599999999999998,0)" xlink:href="#aK"/><use transform="matrix(0.05,0,0,0.05,32.599999999999994,0)" xlink:href="#aG"/></g><g id="al"><use transform="matrix(0.04938271604938272,0,0,0.04938271604938272,0,0)" xlink:href="#bk"/><use transform="matrix(0.04938271604938272,0,0,0.04938271604938272,4.938271604938272,0)" xlink:href="#bo"/><use transform="matrix(0.04938271604938272,0,0,0.04938271604938272,15.753086419753087,0)" xlink:href="#bw"/><use transform="matrix(0.04938271604938272,0,0,0.04938271604938272,21.62962962962963,0)" xlink:href="#aO"/><use transform="matrix(0.04938271604938272,0,0,0.04938271604938272,31.506172839506174,0)" xlink:href="#aP"/><use transform="matrix(0.04938271604938272,0,0,0.04938271604938272,38.41975308641975,0)" xlink:href="#bJ"/><use transform="matrix(0.04938271604938272,0,0,0.04938271604938272,48.2962962962963,0)" xlink:href="#aO"/><use transform="matrix(0.04938271604938272,0,0,0.04938271604938272,58.17283950617284,0)" xlink:href="#bo"/><use transform="matrix(0.04938271604938272,0,0,0.04938271604938272,68.98765432098766,0)" xlink:href="#bw"/><use transform="matrix(0.04938271604938272,0,0,0.04938271604938272,74.8641975308642,0)" xlink:href="#bk"/><use transform="matrix(0.04938271604938272,0,0,0.04938271604938272,79.80246913580248,0)" xlink:href="#br"/><use transform="matrix(0.04938271604938272,0,0,0.04938271604938272,90.61728395061729,0)" xlink:href="#bo"/></g><g id="am"><use transform="matrix(0.05,0,0,0.05,0,0)" xlink:href="#aH"/><use transform="matrix(0.05,0,0,0.05,9,0)" xlink:href="#aZ"/><use transform="matrix(0.05,0,0,0.05,14,0)" xlink:href="#aQ"/><use transform="matrix(0.05,0,0,0.05,17.95,0)" xlink:href="#aU"/><use transform="matrix(0.05,0,0,0.05,32.9,0)" xlink:href="#aG"/></g><g id="an"><use transform="matrix(0.05,0,0,0.05,0,0)" xlink:href="#aG"/><use transform="matrix(0.05,0,0,0.05,10,0)" xlink:href="#aZ"/><use transform="matrix(0.05,0,0,0.05,15,0)" xlink:href="#aQ"/><use transform="matrix(0.05,0,0,0.05,18.95,0)" xlink:href="#aU"/><use transform="matrix(0.05,0,0,0.05,33.9,0)" xlink:href="#aG"/></g><g id="ao"><use transform="matrix(0.04938271604938272,0,0,0.04938271604938272,0,0)" xlink:href="#bx"/><use transform="matrix(0.04938271604938272,0,0,0.04938271604938272,9.876543209876544,0)" xlink:href="#bn"/><use transform="matrix(0.04938271604938272,0,0,0.04938271604938272,20.69135802469136,0)" xlink:href="#bn"/><use transform="matrix(0.04938271604938272,0,0,0.04938271604938272,31.506172839506174,0)" xlink:href="#aP"/><use transform="matrix(0.04938271604938272,0,0,0.04938271604938272,38.41975308641976,0)" xlink:href="#aO"/><use transform="matrix(0.04938271604938272,0,0,0.04938271604938272,48.296296296296305,0)" xlink:href="#bn"/><use transform="matrix(0.04938271604938272,0,0,0.04938271604938272,59.111111111111114,0)" xlink:href="#bx"/><use transform="matrix(0.04938271604938272,0,0,0.04938271604938272,68.98765432098767,0)" xlink:href="#bw"/><use transform="matrix(0.04938271604938272,0,0,0.04938271604938272,74.86419753086422,0)" xlink:href="#bk"/><use transform="matrix(0.04938271604938272,0,0,0.04938271604938272,79.80246913580248,0)" xlink:href="#br"/><use transform="matrix(0.04938271604938272,0,0,0.04938271604938272,90.61728395061729,0)" xlink:href="#bo"/></g></defs></g></svg>