<svg xmlns="http://www.w3.org/2000/svg" xmlns:xlink="http://www.w3.org/1999/xlink" xmlns:lucid="lucid" width="1610" height="966"><g transform="translate(0 -255)" lucid:page-tab-id="0_0"><path d="M0 0h1760v1360H0z" fill="#fff"/><path d="M158.3 546.16H81.2c-15.5 0-25.05-8-25.05-20.6v-196.5c0-13.8 11.2-25.18 25.06-25.18h77.1c13.85 0 25.05 11.38 25.05 25.2v18.65h-10.43v-18.66c.12-8.24-6.5-14.78-14.63-14.78H81.2c-8.13 0-14.75 6.53-14.62 14.77v196.5c0 6.78 5.1 10.4 14.63 10.4h77.1c9.78 0 14.62-3.62 14.62-10.4v-12.12h10.43v12.1c-.26 12.86-9.8 20.6-25.06 20.6z" stroke="#fff" stroke-opacity="0" fill="#232f3e"/><path d="M114.72 323.2h29.18v10.32h-29.18v-10.3zM95.28 337.38c-4.86.06-8.86-3.82-8.9-8.66-.07-4.83 3.83-8.8 8.7-8.86 4.86-.06 8.86 3.82 8.9 8.65v.12c.05 4.8-3.87 8.73-8.7 8.76zm0-10.3c-.8.07-1.4.73-1.4 1.52 0 .86.7 1.56 1.55 1.56.86 0 1.56-.68 1.56-1.54v-.05c-.06-.88-.83-1.56-1.72-1.5zM183.1 492.7h-10.37V352.9H61.28v-10.36h116.57c2.92 0 5.24 2.25 5.24 5.1z" stroke="#fff" stroke-opacity="0" fill="#232f3e"/><path d="M177.85 517.2H61.28v-10.33h111.45V483h10.36v29.03c0 2.83-2.33 5.16-5.25 5.16z" stroke="#fff" stroke-opacity="0" fill="#232f3e"/><use xlink:href="#a" transform="matrix(1,0,0,1,26.148716774559034,555.1580596583641) translate(35.277777777777786 32)"/><use xlink:href="#b" transform="matrix(1,0,0,1,26.148716774559034,555.1580596583641) translate(43.05555555555556 80)"/><path d="M1282.46 276.34c16.57 0 30 13.43 30 30v872.45c0 16.56-13.43 30-30 30H901.78c-16.57 0-30-13.44-30-30V306.33c0-16.57 13.43-30 30-30z" stroke="#000" stroke-width="2" fill-opacity="0"/><path d="M1220.24 322.66c16.57 0 30 13.43 30 30v180c0 16.57-13.43 30-30 30h-260c-16.57 0-30-13.43-30-30v-180c0-16.57 13.43-30 30-30zM1220.24 623.03c16.57 0 30 13.43 30 30v180c0 16.57-13.43 30-30 30h-260c-16.57 0-30-13.43-30-30v-180c0-16.57 13.43-30 30-30zM1222.12 923.4c16.57 0 30 13.43 30 30v180c0 16.57-13.43 30-30 30h-260c-16.57 0-30-13.43-30-30v-180c0-16.57 13.43-30 30-30z" stroke="#000" stroke-width="2" fill-opacity="0"/><path d="M956.44 366.27h283.28v154H956.44z" fill="none"/><use xlink:href="#c" transform="matrix(1,0,0,1,961.4384830961069,371.27028794810855) translate(84.16666666666666 32)"/><use xlink:href="#d" transform="matrix(1,0,0,1,961.4384830961069,371.27028794810855) translate(62.6111111111111 80)"/><use xlink:href="#e" transform="matrix(1,0,0,1,961.4384830961069,371.27028794810855) translate(67.16666666666666 128)"/><path d="M948.6 663.37h283.28V822.7H948.6z" fill="none"/><use xlink:href="#f" transform="matrix(1,0,0,1,953.5984920371159,668.3652072178801) translate(70.44444444444444 32.33333333333333)"/><use xlink:href="#g" transform="matrix(1,0,0,1,953.5984920371159,668.3652072178801) translate(67.16666666666666 80.33333333333333)"/><use xlink:href="#h" transform="matrix(1,0,0,1,953.5984920371159,668.3652072178801) translate(27.21604938271605 114.11111111111111)"/><use xlink:href="#i" transform="matrix(1,0,0,1,953.5984920371159,668.3652072178801) translate(120.91975308641976 114.11111111111111)"/><use xlink:href="#j" transform="matrix(1,0,0,1,953.5984920371159,668.3652072178801) translate(209.7469135802469 114.11111111111111)"/><use xlink:href="#k" transform="matrix(1,0,0,1,953.5984920371159,668.3652072178801) translate(8.141975308641975 140.77777777777777)"/><use xlink:href="#l" transform="matrix(1,0,0,1,953.5984920371159,668.3652072178801) translate(101.84567901234568 140.77777777777777)"/><use xlink:href="#m" transform="matrix(1,0,0,1,953.5984920371159,668.3652072178801) translate(167.21604938271605 140.77777777777777)"/><path d="M948.6 963.73h283.28v159.34H948.6z" fill="none"/><use xlink:href="#n" transform="matrix(1,0,0,1,953.5984920371159,968.734934032584) translate(51.499999999999986 32.33333333333333)"/><use xlink:href="#g" transform="matrix(1,0,0,1,953.5984920371159,968.734934032584) translate(67.16666666666666 80.33333333333333)"/><use xlink:href="#h" transform="matrix(1,0,0,1,953.5984920371159,968.734934032584) translate(27.21604938271605 114.11111111111111)"/><use xlink:href="#i" transform="matrix(1,0,0,1,953.5984920371159,968.734934032584) translate(120.91975308641976 114.11111111111111)"/><use xlink:href="#j" transform="matrix(1,0,0,1,953.5984920371159,968.734934032584) translate(209.7469135802469 114.11111111111111)"/><use xlink:href="#k" transform="matrix(1,0,0,1,953.5984920371159,968.734934032584) translate(8.141975308641975 140.77777777777777)"/><use xlink:href="#l" transform="matrix(1,0,0,1,953.5984920371159,968.734934032584) translate(101.84567901234568 140.77777777777777)"/><use xlink:href="#m" transform="matrix(1,0,0,1,953.5984920371159,968.734934032584) translate(167.21604938271605 140.77777777777777)"/><path d="M1429.98 960.2v147.42c0 15.23 33.45 27.66 74.67 27.66v-175.1h-74.67z" stroke="#000" stroke-opacity="0" fill="#3999c6"/><path d="M1503.62 1135.28h1.06c41.18 0 74.63-12.43 74.63-27.67V960.2h-75.68v175.08z" stroke="#000" stroke-opacity="0" fill="#59b4d9"/><path d="M1579.3 960.2c0 15.28-33.44 27.7-74.65 27.7-41.22 0-74.67-12.42-74.67-27.7 0-15.3 33.45-27.7 74.67-27.7 41.2 0 74.66 12.4 74.66 27.7" stroke="#000" stroke-opacity="0" fill="#fff"/><path d="M1564.05 958.6c0 10.1-26.6 18.28-59.4 18.28s-59.4-8.2-59.4-18.28c0-10.1 26.6-18.28 59.4-18.28s59.4 8.2 59.4 18.28" stroke="#000" stroke-opacity="0" fill="#7fba00"/><path d="M1551.58 969.77c7.84-3.1 12.47-6.95 12.47-11.16 0-10.1-26.6-18.28-59.4-18.28s-59.4 8.2-59.4 18.3c0 4.2 4.63 8.05 12.47 11.15 10.8-4.33 27.8-7.1 46.93-7.1s36.12 2.77 46.93 7.1" stroke="#000" stroke-opacity="0" fill="#b8d432"/><path d="M1552.96 1079.68c-4.02 3.45-9.45 5.14-16.5 5.14H1513v-62.7h22.26c6.95 0 12.38 1.3 16.07 4 3.47 2.58 5.2 6.16 5.2 10.67 0 3.63-1.3 6.7-3.9 9.46-2.17 2.2-4.77 3.76-8.03 4.7v.13c4.34.55 7.93 2.24 10.53 5.13 2.5 2.7 3.8 6.02 3.8 9.84 0 5.77-2.06 10.22-5.97 13.6m-57.2-3.7c-5.88 5.9-13.8 8.85-23.68 8.85h-21.7v-62.7h21.7c21.7 0 32.57 10.16 32.57 30.53 0 9.72-2.93 17.56-8.9 23.33" stroke="#000" stroke-opacity="0" fill="#fff"/><path d="M1470.9 1033.56h-6.8v39.8h6.88c6.04 0 10.7-1.94 14.17-5.64 3.33-3.7 5-8.64 5-14.9 0-5.88-1.67-10.5-4.93-13.92-3.38-3.55-8.14-5.34-14.3-5.34" stroke="#000" stroke-opacity="0" fill="#3999c6"/><path d="M1539.48 1045.25c1.66-1.5 2.48-3.42 2.48-5.8 0-4.66-3.32-6.98-10.03-6.98h-5.2v14.86h6.1c2.8 0 5.06-.7 6.65-2.08M1541.73 1060c-1.8-1.4-4.27-2.17-7.48-2.17h-7.53v16.54h7.46c3.2 0 5.75-.78 7.62-2.32 1.74-1.55 2.65-3.55 2.65-6.18 0-2.48-.9-4.48-2.72-5.87" stroke="#000" stroke-opacity="0" fill="#59b4d9"/><use xlink:href="#o" transform="matrix(1,0,0,1,1399.9827097145997,1144.2814238852534) translate(19.499999999999986 32)"/><path d="M928.24 475.86H201.6" stroke="#000" stroke-width="2" fill="none"/><path d="M929.24 476.86h-1.03v-2h1.04z"/><path d="M186.32 475.86l14.27-4.64v9.27z" stroke="#000" stroke-width="2"/><use xlink:href="#p" transform="matrix(1,0,0,1,399.4000348567405,434.52563829462963) translate(0 24.888888888888893)"/><use xlink:href="#q" transform="matrix(1,0,0,1,399.4000348567405,434.52563829462963) translate(148.55555555555557 24.888888888888893)"/><path d="M184.1 378.08h726.64" stroke="#000" stroke-width="2" fill="none"/><path d="M184.1 379.08h-1v-2h1z"/><path d="M926 378.08l-14.26 4.64v-9.28z" stroke="#000" stroke-width="2"/><use xlink:href="#r" transform="matrix(1,0,0,1,264.9891254876829,382.0797308824911) translate(0 24.888888888888893)"/><use xlink:href="#s" transform="matrix(1,0,0,1,264.9891254876829,382.0797308824911) translate(124.35802469135803 24.888888888888893)"/><path d="M1174.17 564.66v38.87" stroke="#000" stroke-width="2" fill="none"/><path d="M1175.17 564.7h-2v-1.04h2z"/><path d="M1174.17 618.8l-4.64-14.27h9.27z" stroke="#000" stroke-width="2"/><path d="M1166.02 865.03v38.87" stroke="#000" stroke-width="2" fill="none"/><path d="M1167.02 865.06h-2v-1.03h2z"/><path d="M1166.02 919.17l-4.64-14.27h9.27z" stroke="#000" stroke-width="2"/><path d="M1254.12 996.2h87.43v-.48h69.93" stroke="#000" stroke-width="2" fill="none"/><path d="M1254.15 997.2h-1.03v-2h1.03z"/><path d="M1426.75 995.72l-14.27 4.63v-9.27z" stroke="#000" stroke-width="2"/><path d="M1428.98 1082.1h-87.43v.46h-69.93" stroke="#000" stroke-width="2" fill="none"/><path d="M1429.98 1083.1h-1.02v-2h1.02z"/><path d="M1256.36 1082.56l14.26-4.64v9.27z" stroke="#000" stroke-width="2"/><path d="M978.6 921.4v-40.34" stroke="#000" stroke-width="2" fill="none"/><path d="M979.6 922.4h-2v-1.02h2z"/><path d="M978.6 865.8l4.64 14.26h-9.27z" stroke="#000" stroke-width="2"/><path d="M980.24 621.03v-38.86" stroke="#000" stroke-width="2" fill="none"/><path d="M981.24 622.03h-2V621h2z"/><path d="M980.24 566.9l4.63 14.27h-9.27z" stroke="#000" stroke-width="2"/><defs><path d="M240 0l2-218c-23 76-54 145-80 218h-23L58-218 59 0H30v-248h44l77 211c21-75 51-140 76-211h43V0h-30" id="t"/><path d="M100-194c62-1 85 37 85 99 1 63-27 99-86 99S16-35 15-95c0-66 28-99 85-99zM99-20c44 1 53-31 53-75 0-43-8-75-51-75s-53 32-53 75 10 74 51 75" id="u"/><path d="M115-194c53 0 69 39 70 98 0 66-23 100-70 100C84 3 66-7 56-30L54 0H23l1-261h32v101c10-23 28-34 59-34zm-8 174c40 0 45-34 45-75 0-40-5-75-45-74-42 0-51 32-51 76 0 43 10 73 51 73" id="v"/><path d="M24-231v-30h32v30H24zM24 0v-190h32V0H24" id="w"/><path d="M24 0v-261h32V0H24" id="x"/><path d="M100-194c63 0 86 42 84 106H49c0 40 14 67 53 68 26 1 43-12 49-29l28 8c-11 28-37 45-77 45C44 4 14-33 15-96c1-61 26-98 85-98zm52 81c6-60-76-77-97-28-3 7-6 17-6 28h103" id="y"/><g id="a"><use transform="matrix(0.1111111111111111,0,0,0.1111111111111111,0,0)" xlink:href="#t"/><use transform="matrix(0.1111111111111111,0,0,0.1111111111111111,33.22222222222222,0)" xlink:href="#u"/><use transform="matrix(0.1111111111111111,0,0,0.1111111111111111,55.44444444444444,0)" xlink:href="#v"/><use transform="matrix(0.1111111111111111,0,0,0.1111111111111111,77.66666666666666,0)" xlink:href="#w"/><use transform="matrix(0.1111111111111111,0,0,0.1111111111111111,86.44444444444443,0)" xlink:href="#x"/><use transform="matrix(0.1111111111111111,0,0,0.1111111111111111,95.2222222222222,0)" xlink:href="#y"/></g><path d="M212-179c-10-28-35-45-73-45-59 0-87 40-87 99 0 60 29 101 89 101 43 0 62-24 78-52l27 14C228-24 195 4 139 4 59 4 22-46 18-125c-6-104 99-153 187-111 19 9 31 26 39 46" id="z"/><path d="M117-194c89-4 53 116 60 194h-32v-121c0-31-8-49-39-48C34-167 62-67 57 0H25l-1-190h30c1 10-1 24 2 32 11-22 29-35 61-36" id="A"/><path d="M59-47c-2 24 18 29 38 22v24C64 9 27 4 27-40v-127H5v-23h24l9-43h21v43h35v23H59v120" id="B"/><g id="b"><use transform="matrix(0.1111111111111111,0,0,0.1111111111111111,0,0)" xlink:href="#z"/><use transform="matrix(0.1111111111111111,0,0,0.1111111111111111,28.777777777777775,0)" xlink:href="#x"/><use transform="matrix(0.1111111111111111,0,0,0.1111111111111111,37.55555555555555,0)" xlink:href="#w"/><use transform="matrix(0.1111111111111111,0,0,0.1111111111111111,46.33333333333333,0)" xlink:href="#y"/><use transform="matrix(0.1111111111111111,0,0,0.1111111111111111,68.55555555555554,0)" xlink:href="#A"/><use transform="matrix(0.1111111111111111,0,0,0.1111111111111111,90.77777777777777,0)" xlink:href="#B"/></g><path d="M233-177c-1 41-23 64-60 70L243 0h-38l-65-103H63V0H30v-248c88 3 205-21 203 71zM63-129c60-2 137 13 137-47 0-61-80-42-137-45v92" id="C"/><path d="M30 0v-248h187v28H63v79h144v27H63v87h162V0H30" id="D"/><path d="M185-189c-5-48-123-54-124 2 14 75 158 14 163 119 3 78-121 87-175 55-17-10-28-26-33-46l33-7c5 56 141 63 141-1 0-78-155-14-162-118-5-82 145-84 179-34 5 7 8 16 11 25" id="E"/><path d="M127-220V0H93v-220H8v-28h204v28h-85" id="F"/><g id="c"><use transform="matrix(0.1111111111111111,0,0,0.1111111111111111,0,0)" xlink:href="#C"/><use transform="matrix(0.1111111111111111,0,0,0.1111111111111111,28.777777777777775,0)" xlink:href="#D"/><use transform="matrix(0.1111111111111111,0,0,0.1111111111111111,55.44444444444444,0)" xlink:href="#E"/><use transform="matrix(0.1111111111111111,0,0,0.1111111111111111,82.11111111111111,0)" xlink:href="#F"/></g><path d="M145-31C134-9 116 4 85 4 32 4 16-35 15-94c0-59 17-99 70-100 32-1 48 14 60 33 0-11-1-24 2-32h30l-1 268h-32zM93-21c41 0 51-33 51-76s-8-73-50-73c-40 0-46 35-46 75s5 74 45 74" id="G"/><path d="M84 4C-5 8 30-112 23-190h32v120c0 31 7 50 39 49 72-2 45-101 50-169h31l1 190h-30c-1-10 1-25-2-33-11 22-28 36-60 37" id="H"/><path d="M135-143c-3-34-86-38-87 0 15 53 115 12 119 90S17 21 10-45l28-5c4 36 97 45 98 0-10-56-113-15-118-90-4-57 82-63 122-42 12 7 21 19 24 35" id="I"/><g id="d"><use transform="matrix(0.1111111111111111,0,0,0.1111111111111111,0,0)" xlink:href="#C"/><use transform="matrix(0.1111111111111111,0,0,0.1111111111111111,28.777777777777775,0)" xlink:href="#y"/><use transform="matrix(0.1111111111111111,0,0,0.1111111111111111,51,0)" xlink:href="#G"/><use transform="matrix(0.1111111111111111,0,0,0.1111111111111111,73.22222222222223,0)" xlink:href="#H"/><use transform="matrix(0.1111111111111111,0,0,0.1111111111111111,95.44444444444446,0)" xlink:href="#y"/><use transform="matrix(0.1111111111111111,0,0,0.1111111111111111,117.66666666666669,0)" xlink:href="#I"/><use transform="matrix(0.1111111111111111,0,0,0.1111111111111111,137.66666666666669,0)" xlink:href="#B"/></g><path d="M197 0v-115H63V0H30v-248h33v105h134v-105h34V0h-34" id="J"/><path d="M141-36C126-15 110 5 73 4 37 3 15-17 15-53c-1-64 63-63 125-63 3-35-9-54-41-54-24 1-41 7-42 31l-33-3c5-37 33-52 76-52 45 0 72 20 72 64v82c-1 20 7 32 28 27v20c-31 9-61-2-59-35zM48-53c0 20 12 33 32 33 41-3 63-29 60-74-43 2-92-5-92 41" id="K"/><path d="M85-194c31 0 48 13 60 33l-1-100h32l1 261h-30c-2-10 0-23-3-31C134-8 116 4 85 4 32 4 16-35 15-94c0-66 23-100 70-100zm9 24c-40 0-46 34-46 75 0 40 6 74 45 74 42 0 51-32 51-76 0-42-9-74-50-73" id="L"/><path d="M114-163C36-179 61-72 57 0H25l-1-190h30c1 12-1 29 2 39 6-27 23-49 58-41v29" id="M"/><g id="e"><use transform="matrix(0.1111111111111111,0,0,0.1111111111111111,0,0)" xlink:href="#J"/><use transform="matrix(0.1111111111111111,0,0,0.1111111111111111,28.777777777777775,0)" xlink:href="#K"/><use transform="matrix(0.1111111111111111,0,0,0.1111111111111111,51,0)" xlink:href="#A"/><use transform="matrix(0.1111111111111111,0,0,0.1111111111111111,73.22222222222223,0)" xlink:href="#L"/><use transform="matrix(0.1111111111111111,0,0,0.1111111111111111,95.44444444444446,0)" xlink:href="#x"/><use transform="matrix(0.1111111111111111,0,0,0.1111111111111111,104.22222222222223,0)" xlink:href="#y"/><use transform="matrix(0.1111111111111111,0,0,0.1111111111111111,126.44444444444446,0)" xlink:href="#M"/></g><path d="M108 0H70L1-190h34L89-25l56-165h34" id="N"/><path d="M96-169c-40 0-48 33-48 73s9 75 48 75c24 0 41-14 43-38l32 2c-6 37-31 61-74 61-59 0-76-41-82-99-10-93 101-131 147-64 4 7 5 14 7 22l-32 3c-4-21-16-35-41-35" id="O"/><g id="f"><use transform="matrix(0.1111111111111111,0,0,0.1111111111111111,0,0)" xlink:href="#E"/><use transform="matrix(0.1111111111111111,0,0,0.1111111111111111,26.666666666666664,0)" xlink:href="#y"/><use transform="matrix(0.1111111111111111,0,0,0.1111111111111111,48.888888888888886,0)" xlink:href="#M"/><use transform="matrix(0.1111111111111111,0,0,0.1111111111111111,62.11111111111111,0)" xlink:href="#N"/><use transform="matrix(0.1111111111111111,0,0,0.1111111111111111,82.11111111111111,0)" xlink:href="#w"/><use transform="matrix(0.1111111111111111,0,0,0.1111111111111111,90.88888888888889,0)" xlink:href="#O"/><use transform="matrix(0.1111111111111111,0,0,0.1111111111111111,110.88888888888889,0)" xlink:href="#y"/></g><g id="g"><use transform="matrix(0.1111111111111111,0,0,0.1111111111111111,0,0)" xlink:href="#J"/><use transform="matrix(0.1111111111111111,0,0,0.1111111111111111,28.777777777777775,0)" xlink:href="#K"/><use transform="matrix(0.1111111111111111,0,0,0.1111111111111111,51,0)" xlink:href="#A"/><use transform="matrix(0.1111111111111111,0,0,0.1111111111111111,73.22222222222223,0)" xlink:href="#L"/><use transform="matrix(0.1111111111111111,0,0,0.1111111111111111,95.44444444444446,0)" xlink:href="#x"/><use transform="matrix(0.1111111111111111,0,0,0.1111111111111111,104.22222222222223,0)" xlink:href="#y"/><use transform="matrix(0.1111111111111111,0,0,0.1111111111111111,126.44444444444446,0)" xlink:href="#M"/></g><path d="M87 75C49 33 22-17 22-94c0-76 28-126 65-167h31c-38 41-64 92-64 168S80 34 118 75H87" id="P"/><path d="M30-248c87 1 191-15 191 75 0 78-77 80-158 76V0H30v-248zm33 125c57 0 124 11 124-50 0-59-68-47-124-48v98" id="Q"/><g id="h"><use transform="matrix(0.06172839506172839,0,0,0.06172839506172839,0,0)" xlink:href="#P"/><use transform="matrix(0.06172839506172839,0,0,0.06172839506172839,7.345679012345679,0)" xlink:href="#Q"/><use transform="matrix(0.06172839506172839,0,0,0.06172839506172839,22.160493827160494,0)" xlink:href="#M"/><use transform="matrix(0.06172839506172839,0,0,0.06172839506172839,29.50617283950617,0)" xlink:href="#u"/><use transform="matrix(0.06172839506172839,0,0,0.06172839506172839,41.85185185185185,0)" xlink:href="#O"/><use transform="matrix(0.06172839506172839,0,0,0.06172839506172839,52.96296296296296,0)" xlink:href="#y"/><use transform="matrix(0.06172839506172839,0,0,0.06172839506172839,65.30864197530865,0)" xlink:href="#I"/><use transform="matrix(0.06172839506172839,0,0,0.06172839506172839,76.41975308641976,0)" xlink:href="#I"/></g><g id="i"><use transform="matrix(0.06172839506172839,0,0,0.06172839506172839,0,0)" xlink:href="#C"/><use transform="matrix(0.06172839506172839,0,0,0.06172839506172839,15.987654320987653,0)" xlink:href="#y"/><use transform="matrix(0.06172839506172839,0,0,0.06172839506172839,28.333333333333332,0)" xlink:href="#G"/><use transform="matrix(0.06172839506172839,0,0,0.06172839506172839,40.67901234567901,0)" xlink:href="#H"/><use transform="matrix(0.06172839506172839,0,0,0.06172839506172839,53.02469135802469,0)" xlink:href="#y"/><use transform="matrix(0.06172839506172839,0,0,0.06172839506172839,65.37037037037037,0)" xlink:href="#I"/><use transform="matrix(0.06172839506172839,0,0,0.06172839506172839,76.48148148148148,0)" xlink:href="#B"/></g><g id="j"><use transform="matrix(0.06172839506172839,0,0,0.06172839506172839,0,0)" xlink:href="#K"/><use transform="matrix(0.06172839506172839,0,0,0.06172839506172839,12.345679012345679,0)" xlink:href="#A"/><use transform="matrix(0.06172839506172839,0,0,0.06172839506172839,24.691358024691358,0)" xlink:href="#L"/></g><path d="M115-194c55 1 70 41 70 98S169 2 115 4C84 4 66-9 55-30l1 105H24l-1-265h31l2 30c10-21 28-34 59-34zm-8 174c40 0 45-34 45-75s-6-73-45-74c-42 0-51 32-51 76 0 43 10 73 51 73" id="R"/><g id="k"><use transform="matrix(0.06172839506172839,0,0,0.06172839506172839,0,0)" xlink:href="#R"/><use transform="matrix(0.06172839506172839,0,0,0.06172839506172839,12.345679012345679,0)" xlink:href="#M"/><use transform="matrix(0.06172839506172839,0,0,0.06172839506172839,19.691358024691358,0)" xlink:href="#y"/><use transform="matrix(0.06172839506172839,0,0,0.06172839506172839,32.03703703703704,0)" xlink:href="#R"/><use transform="matrix(0.06172839506172839,0,0,0.06172839506172839,44.382716049382715,0)" xlink:href="#K"/><use transform="matrix(0.06172839506172839,0,0,0.06172839506172839,56.72839506172839,0)" xlink:href="#M"/><use transform="matrix(0.06172839506172839,0,0,0.06172839506172839,64.07407407407408,0)" xlink:href="#y"/><use transform="matrix(0.06172839506172839,0,0,0.06172839506172839,76.41975308641976,0)" xlink:href="#I"/></g><path d="M153-248C145-148 188 4 80 4 36 3 13-21 6-62l32-5c4 25 16 42 43 43 27 0 39-20 39-49v-147H72v-28h81" id="S"/><path d="M140-251c81 0 123 46 123 126C263-46 219 4 140 4 59 4 17-45 17-125s42-126 123-126zm0 227c63 0 89-41 89-101s-29-99-89-99c-61 0-89 39-89 99S79-25 140-24" id="T"/><path d="M190 0L58-211 59 0H30v-248h39L202-35l-2-213h31V0h-41" id="U"/><g id="l"><use transform="matrix(0.06172839506172839,0,0,0.06172839506172839,0,0)" xlink:href="#S"/><use transform="matrix(0.06172839506172839,0,0,0.06172839506172839,11.11111111111111,0)" xlink:href="#E"/><use transform="matrix(0.06172839506172839,0,0,0.06172839506172839,25.925925925925924,0)" xlink:href="#T"/><use transform="matrix(0.06172839506172839,0,0,0.06172839506172839,43.20987654320987,0)" xlink:href="#U"/></g><path d="M33-261c38 41 65 92 65 168S71 34 33 75H2C39 34 66-17 66-93S39-220 2-261h31" id="V"/><g id="m"><use transform="matrix(0.06172839506172839,0,0,0.06172839506172839,0,0)" xlink:href="#M"/><use transform="matrix(0.06172839506172839,0,0,0.06172839506172839,7.345679012345679,0)" xlink:href="#y"/><use transform="matrix(0.06172839506172839,0,0,0.06172839506172839,19.691358024691358,0)" xlink:href="#I"/><use transform="matrix(0.06172839506172839,0,0,0.06172839506172839,30.80246913580247,0)" xlink:href="#R"/><use transform="matrix(0.06172839506172839,0,0,0.06172839506172839,43.148148148148145,0)" xlink:href="#u"/><use transform="matrix(0.06172839506172839,0,0,0.06172839506172839,55.49382716049382,0)" xlink:href="#A"/><use transform="matrix(0.06172839506172839,0,0,0.06172839506172839,67.8395061728395,0)" xlink:href="#I"/><use transform="matrix(0.06172839506172839,0,0,0.06172839506172839,78.95061728395062,0)" xlink:href="#y"/><use transform="matrix(0.06172839506172839,0,0,0.06172839506172839,91.2962962962963,0)" xlink:href="#V"/></g><path d="M30-248c118-7 216 8 213 122C240-48 200 0 122 0H30v-248zM63-27c89 8 146-16 146-99s-60-101-146-95v194" id="W"/><g id="n"><use transform="matrix(0.1111111111111111,0,0,0.1111111111111111,0,0)" xlink:href="#W"/><use transform="matrix(0.1111111111111111,0,0,0.1111111111111111,28.777777777777775,0)" xlink:href="#K"/><use transform="matrix(0.1111111111111111,0,0,0.1111111111111111,51,0)" xlink:href="#B"/><use transform="matrix(0.1111111111111111,0,0,0.1111111111111111,62.11111111111112,0)" xlink:href="#K"/><use transform="matrix(0.1111111111111111,0,0,0.1111111111111111,84.33333333333334,0)" xlink:href="#v"/><use transform="matrix(0.1111111111111111,0,0,0.1111111111111111,106.55555555555557,0)" xlink:href="#K"/><use transform="matrix(0.1111111111111111,0,0,0.1111111111111111,128.7777777777778,0)" xlink:href="#I"/><use transform="matrix(0.1111111111111111,0,0,0.1111111111111111,148.7777777777778,0)" xlink:href="#y"/></g><g id="o"><use transform="matrix(0.1111111111111111,0,0,0.1111111111111111,0,0)" xlink:href="#W"/><use transform="matrix(0.1111111111111111,0,0,0.1111111111111111,28.777777777777775,0)" xlink:href="#K"/><use transform="matrix(0.1111111111111111,0,0,0.1111111111111111,51,0)" xlink:href="#B"/><use transform="matrix(0.1111111111111111,0,0,0.1111111111111111,62.11111111111112,0)" xlink:href="#K"/><use transform="matrix(0.1111111111111111,0,0,0.1111111111111111,84.33333333333334,0)" xlink:href="#v"/><use transform="matrix(0.1111111111111111,0,0,0.1111111111111111,106.55555555555557,0)" xlink:href="#K"/><use transform="matrix(0.1111111111111111,0,0,0.1111111111111111,128.7777777777778,0)" xlink:href="#I"/><use transform="matrix(0.1111111111111111,0,0,0.1111111111111111,148.7777777777778,0)" xlink:href="#y"/></g><g id="p"><use transform="matrix(0.08641975308641976,0,0,0.08641975308641976,0,0)" xlink:href="#C"/><use transform="matrix(0.08641975308641976,0,0,0.08641975308641976,22.38271604938272,0)" xlink:href="#y"/><use transform="matrix(0.08641975308641976,0,0,0.08641975308641976,39.66666666666667,0)" xlink:href="#I"/><use transform="matrix(0.08641975308641976,0,0,0.08641975308641976,55.22222222222223,0)" xlink:href="#R"/><use transform="matrix(0.08641975308641976,0,0,0.08641975308641976,72.50617283950618,0)" xlink:href="#u"/><use transform="matrix(0.08641975308641976,0,0,0.08641975308641976,89.79012345679013,0)" xlink:href="#A"/><use transform="matrix(0.08641975308641976,0,0,0.08641975308641976,107.07407407407409,0)" xlink:href="#I"/><use transform="matrix(0.08641975308641976,0,0,0.08641975308641976,122.62962962962965,0)" xlink:href="#y"/></g><g id="q"><use transform="matrix(0.08641975308641976,0,0,0.08641975308641976,0,0)" xlink:href="#P"/><use transform="matrix(0.08641975308641976,0,0,0.08641975308641976,10.283950617283951,0)" xlink:href="#S"/><use transform="matrix(0.08641975308641976,0,0,0.08641975308641976,25.839506172839503,0)" xlink:href="#E"/><use transform="matrix(0.08641975308641976,0,0,0.08641975308641976,46.580246913580254,0)" xlink:href="#T"/><use transform="matrix(0.08641975308641976,0,0,0.08641975308641976,70.77777777777779,0)" xlink:href="#U"/><use transform="matrix(0.08641975308641976,0,0,0.08641975308641976,93.16049382716051,0)" xlink:href="#V"/></g><g id="r"><use transform="matrix(0.08641975308641976,0,0,0.08641975308641976,0,0)" xlink:href="#C"/><use transform="matrix(0.08641975308641976,0,0,0.08641975308641976,22.38271604938272,0)" xlink:href="#y"/><use transform="matrix(0.08641975308641976,0,0,0.08641975308641976,39.66666666666667,0)" xlink:href="#G"/><use transform="matrix(0.08641975308641976,0,0,0.08641975308641976,56.95061728395062,0)" xlink:href="#H"/><use transform="matrix(0.08641975308641976,0,0,0.08641975308641976,74.23456790123457,0)" xlink:href="#y"/><use transform="matrix(0.08641975308641976,0,0,0.08641975308641976,91.51851851851853,0)" xlink:href="#I"/><use transform="matrix(0.08641975308641976,0,0,0.08641975308641976,107.07407407407409,0)" xlink:href="#B"/></g><path d="M143 4C61 4 22-44 18-125c-5-107 100-154 193-111 17 8 29 25 37 43l-32 9c-13-25-37-40-76-40-61 0-88 39-88 99 0 61 29 100 91 101 35 0 62-11 79-27v-45h-74v-28h105v86C228-13 192 4 143 4" id="X"/><path d="M68-38c1 34 0 65-14 84H32c9-13 17-26 17-46H33v-38h35" id="Y"/><path d="M232-93c-1 65-40 97-104 97C67 4 28-28 28-90v-158h33c8 89-33 224 67 224 102 0 64-133 71-224h33v155" id="Z"/><path d="M30 0v-248h33v221h125V0H30" id="aa"/><g id="s"><use transform="matrix(0.08641975308641976,0,0,0.08641975308641976,0,0)" xlink:href="#P"/><use transform="matrix(0.08641975308641976,0,0,0.08641975308641976,10.283950617283951,0)" xlink:href="#X"/><use transform="matrix(0.08641975308641976,0,0,0.08641975308641976,34.48148148148148,0)" xlink:href="#D"/><use transform="matrix(0.08641975308641976,0,0,0.08641975308641976,55.22222222222223,0)" xlink:href="#F"/><use transform="matrix(0.08641975308641976,0,0,0.08641975308641976,70.69135802469137,0)" xlink:href="#Y"/><use transform="matrix(0.08641975308641976,0,0,0.08641975308641976,79.33333333333334,0)" xlink:href="#Q"/><use transform="matrix(0.08641975308641976,0,0,0.08641975308641976,100.07407407407409,0)" xlink:href="#T"/><use transform="matrix(0.08641975308641976,0,0,0.08641975308641976,124.27160493827162,0)" xlink:href="#E"/><use transform="matrix(0.08641975308641976,0,0,0.08641975308641976,145.01234567901236,0)" xlink:href="#F"/><use transform="matrix(0.08641975308641976,0,0,0.08641975308641976,160.4814814814815,0)" xlink:href="#Y"/><use transform="matrix(0.08641975308641976,0,0,0.08641975308641976,169.12345679012347,0)" xlink:href="#Q"/><use transform="matrix(0.08641975308641976,0,0,0.08641975308641976,189.86419753086423,0)" xlink:href="#Z"/><use transform="matrix(0.08641975308641976,0,0,0.08641975308641976,212.24691358024688,0)" xlink:href="#F"/><use transform="matrix(0.08641975308641976,0,0,0.08641975308641976,227.71604938271602,0)" xlink:href="#Y"/><use transform="matrix(0.08641975308641976,0,0,0.08641975308641976,236.358024691358,0)" xlink:href="#W"/><use transform="matrix(0.08641975308641976,0,0,0.08641975308641976,258.74074074074076,0)" xlink:href="#D"/><use transform="matrix(0.08641975308641976,0,0,0.08641975308641976,279.4814814814815,0)" xlink:href="#aa"/><use transform="matrix(0.08641975308641976,0,0,0.08641975308641976,296.7654320987655,0)" xlink:href="#D"/><use transform="matrix(0.08641975308641976,0,0,0.08641975308641976,317.50617283950623,0)" xlink:href="#F"/><use transform="matrix(0.08641975308641976,0,0,0.08641975308641976,336.43209876543216,0)" xlink:href="#D"/><use transform="matrix(0.08641975308641976,0,0,0.08641975308641976,357.172839506173,0)" xlink:href="#V"/></g></defs></g></svg>